<?xml version="1.0" encoding="UTF-8" standalone="no"?>
<svg xmlns:dc="http://purl.org/dc/elements/1.1/" xmlns:cc="http://creativecommons.org/ns#" xmlns:rdf="http://www.w3.org/1999/02/22-rdf-syntax-ns#" xmlns:svg="http://www.w3.org/2000/svg" xmlns="http://www.w3.org/2000/svg" version="1.1" width="300" height="789" id="svg2">
  <g id="layer1">

    <path
       d="m 0,50 100,0"
       id="annotators:brennan-50"
       style="fill:none;stroke:#000000;stroke-width:1;stroke-linecap:square;stroke-linejoin:miter;stroke-miterlimit:4;stroke-opacity:1;stroke-dasharray:3, 3;stroke-dashoffset:0" />

    <path
       d="m 0,84 100,0"
       id="annotators:brennan-84"
       style="fill:none;stroke:#000000;stroke-width:1;stroke-linecap:square;stroke-linejoin:miter;stroke-miterlimit:4;stroke-opacity:1;stroke-dasharray:3, 3;stroke-dashoffset:0" />

    <path
       d="m 0,107 100,0"
       id="annotators:brennan-107"
       style="fill:none;stroke:#000000;stroke-width:1;stroke-linecap:square;stroke-linejoin:miter;stroke-miterlimit:4;stroke-opacity:1;stroke-dasharray:3, 3;stroke-dashoffset:0" />

    <path
       d="m 0,220 100,0"
       id="annotators:brennan-220"
       style="fill:none;stroke:#000000;stroke-width:1;stroke-linecap:square;stroke-linejoin:miter;stroke-miterlimit:4;stroke-opacity:1;stroke-dasharray:3, 3;stroke-dashoffset:0" />

    <path
       d="m 0,293 100,0"
       id="annotators:brennan-293"
       style="fill:none;stroke:#000000;stroke-width:1;stroke-linecap:square;stroke-linejoin:miter;stroke-miterlimit:4;stroke-opacity:1;stroke-dasharray:3, 3;stroke-dashoffset:0" />

    <path
       d="m 0,514 100,0"
       id="annotators:brennan-514"
       style="fill:none;stroke:#000000;stroke-width:1;stroke-linecap:square;stroke-linejoin:miter;stroke-miterlimit:4;stroke-opacity:1;stroke-dasharray:3, 3;stroke-dashoffset:0" />

    <path
       d="m 0,585 100,0"
       id="annotators:brennan-585"
       style="fill:none;stroke:#000000;stroke-width:1;stroke-linecap:square;stroke-linejoin:miter;stroke-miterlimit:4;stroke-opacity:1;stroke-dasharray:3, 3;stroke-dashoffset:0" />

    <path
       d="m 0,616 100,0"
       id="annotators:brennan-616"
       style="fill:none;stroke:#000000;stroke-width:1;stroke-linecap:square;stroke-linejoin:miter;stroke-miterlimit:4;stroke-opacity:1;stroke-dasharray:3, 3;stroke-dashoffset:0" />

    <path
       d="m 0,646 100,0"
       id="annotators:brennan-646"
       style="fill:none;stroke:#000000;stroke-width:1;stroke-linecap:square;stroke-linejoin:miter;stroke-miterlimit:4;stroke-opacity:1;stroke-dasharray:3, 3;stroke-dashoffset:0" />

    <path
       d="m 100,84 100,0"
       id="annotators:docsouth-84"
       style="fill:none;stroke:#000000;stroke-width:1;stroke-linecap:square;stroke-linejoin:miter;stroke-miterlimit:4;stroke-opacity:1;stroke-dasharray:3, 3;stroke-dashoffset:0" />

    <path
       d="m 100,151 100,0"
       id="annotators:docsouth-151"
       style="fill:none;stroke:#000000;stroke-width:1;stroke-linecap:square;stroke-linejoin:miter;stroke-miterlimit:4;stroke-opacity:1;stroke-dasharray:3, 3;stroke-dashoffset:0" />

    <path
       d="m 100,220 100,0"
       id="annotators:docsouth-220"
       style="fill:none;stroke:#000000;stroke-width:1;stroke-linecap:square;stroke-linejoin:miter;stroke-miterlimit:4;stroke-opacity:1;stroke-dasharray:3, 3;stroke-dashoffset:0" />

    <path
       d="m 100,264 100,0"
       id="annotators:docsouth-264"
       style="fill:none;stroke:#000000;stroke-width:1;stroke-linecap:square;stroke-linejoin:miter;stroke-miterlimit:4;stroke-opacity:1;stroke-dasharray:3, 3;stroke-dashoffset:0" />

    <path
       d="m 100,293 100,0"
       id="annotators:docsouth-293"
       style="fill:none;stroke:#000000;stroke-width:1;stroke-linecap:square;stroke-linejoin:miter;stroke-miterlimit:4;stroke-opacity:1;stroke-dasharray:3, 3;stroke-dashoffset:0" />

    <path
       d="m 100,414 100,0"
       id="annotators:docsouth-414"
       style="fill:none;stroke:#000000;stroke-width:1;stroke-linecap:square;stroke-linejoin:miter;stroke-miterlimit:4;stroke-opacity:1;stroke-dasharray:3, 3;stroke-dashoffset:0" />

    <path
       d="m 100,495 100,0"
       id="annotators:docsouth-495"
       style="fill:none;stroke:#000000;stroke-width:1;stroke-linecap:square;stroke-linejoin:miter;stroke-miterlimit:4;stroke-opacity:1;stroke-dasharray:3, 3;stroke-dashoffset:0" />

    <path
       d="m 100,547 100,0"
       id="annotators:docsouth-547"
       style="fill:none;stroke:#000000;stroke-width:1;stroke-linecap:square;stroke-linejoin:miter;stroke-miterlimit:4;stroke-opacity:1;stroke-dasharray:3, 3;stroke-dashoffset:0" />

    <path
       d="m 100,585 100,0"
       id="annotators:docsouth-585"
       style="fill:none;stroke:#000000;stroke-width:1;stroke-linecap:square;stroke-linejoin:miter;stroke-miterlimit:4;stroke-opacity:1;stroke-dasharray:3, 3;stroke-dashoffset:0" />

    <path
       d="m 100,616 100,0"
       id="annotators:docsouth-616"
       style="fill:none;stroke:#000000;stroke-width:1;stroke-linecap:square;stroke-linejoin:miter;stroke-miterlimit:4;stroke-opacity:1;stroke-dasharray:3, 3;stroke-dashoffset:0" />

    <path
       d="m 100,646 100,0"
       id="annotators:docsouth-646"
       style="fill:none;stroke:#000000;stroke-width:1;stroke-linecap:square;stroke-linejoin:miter;stroke-miterlimit:4;stroke-opacity:1;stroke-dasharray:3, 3;stroke-dashoffset:0" />

    <path
       d="m 100,774 100,0"
       id="annotators:docsouth-774"
       style="fill:none;stroke:#000000;stroke-width:1;stroke-linecap:square;stroke-linejoin:miter;stroke-miterlimit:4;stroke-opacity:1;stroke-dasharray:3, 3;stroke-dashoffset:0" />

    <path
       d="m 200,33 100,0"
       id="annotators:mannheim-33"
       style="fill:none;stroke:#000000;stroke-width:1;stroke-linecap:square;stroke-linejoin:miter;stroke-miterlimit:4;stroke-opacity:1;stroke-dasharray:3, 3;stroke-dashoffset:0" />

    <path
       d="m 200,50 100,0"
       id="annotators:mannheim-50"
       style="fill:none;stroke:#000000;stroke-width:1;stroke-linecap:square;stroke-linejoin:miter;stroke-miterlimit:4;stroke-opacity:1;stroke-dasharray:3, 3;stroke-dashoffset:0" />

    <path
       d="m 200,84 100,0"
       id="annotators:mannheim-84"
       style="fill:none;stroke:#000000;stroke-width:1;stroke-linecap:square;stroke-linejoin:miter;stroke-miterlimit:4;stroke-opacity:1;stroke-dasharray:3, 3;stroke-dashoffset:0" />

    <path
       d="m 200,107 100,0"
       id="annotators:mannheim-107"
       style="fill:none;stroke:#000000;stroke-width:1;stroke-linecap:square;stroke-linejoin:miter;stroke-miterlimit:4;stroke-opacity:1;stroke-dasharray:3, 3;stroke-dashoffset:0" />

    <path
       d="m 200,220 100,0"
       id="annotators:mannheim-220"
       style="fill:none;stroke:#000000;stroke-width:1;stroke-linecap:square;stroke-linejoin:miter;stroke-miterlimit:4;stroke-opacity:1;stroke-dasharray:3, 3;stroke-dashoffset:0" />

    <path
       d="m 200,293 100,0"
       id="annotators:mannheim-293"
       style="fill:none;stroke:#000000;stroke-width:1;stroke-linecap:square;stroke-linejoin:miter;stroke-miterlimit:4;stroke-opacity:1;stroke-dasharray:3, 3;stroke-dashoffset:0" />

    <path
       d="m 200,514 100,0"
       id="annotators:mannheim-514"
       style="fill:none;stroke:#000000;stroke-width:1;stroke-linecap:square;stroke-linejoin:miter;stroke-miterlimit:4;stroke-opacity:1;stroke-dasharray:3, 3;stroke-dashoffset:0" />

    <path
       d="m 200,585 100,0"
       id="annotators:mannheim-585"
       style="fill:none;stroke:#000000;stroke-width:1;stroke-linecap:square;stroke-linejoin:miter;stroke-miterlimit:4;stroke-opacity:1;stroke-dasharray:3, 3;stroke-dashoffset:0" />

    <path
       d="m 200,646 100,0"
       id="annotators:mannheim-646"
       style="fill:none;stroke:#000000;stroke-width:1;stroke-linecap:square;stroke-linejoin:miter;stroke-miterlimit:4;stroke-opacity:1;stroke-dasharray:3, 3;stroke-dashoffset:0" />

    <path
       d="m 0,50 300,0"
       id="gold-50"
       style="fill:none;stroke:#ff0000;stroke-width:1;stroke-linecap:square;stroke-linejoin:miter;stroke-miterlimit:4;stroke-opacity:0.75;stroke-dasharray:none;stroke-dashoffset:0" />

    <path
       d="m 0,84 300,0"
       id="gold-84"
       style="fill:none;stroke:#ff0000;stroke-width:1;stroke-linecap:square;stroke-linejoin:miter;stroke-miterlimit:4;stroke-opacity:0.75;stroke-dasharray:none;stroke-dashoffset:0" />

    <path
       d="m 0,107 300,0"
       id="gold-107"
       style="fill:none;stroke:#ff0000;stroke-width:1;stroke-linecap:square;stroke-linejoin:miter;stroke-miterlimit:4;stroke-opacity:0.75;stroke-dasharray:none;stroke-dashoffset:0" />

    <path
       d="m 0,220 300,0"
       id="gold-220"
       style="fill:none;stroke:#ff0000;stroke-width:1;stroke-linecap:square;stroke-linejoin:miter;stroke-miterlimit:4;stroke-opacity:0.75;stroke-dasharray:none;stroke-dashoffset:0" />

    <path
       d="m 0,286 300,0"
       id="gold-286"
       style="fill:none;stroke:#ff0000;stroke-width:1;stroke-linecap:square;stroke-linejoin:miter;stroke-miterlimit:4;stroke-opacity:0.75;stroke-dasharray:none;stroke-dashoffset:0" />

    <path
       d="m 0,517 300,0"
       id="gold-517"
       style="fill:none;stroke:#ff0000;stroke-width:1;stroke-linecap:square;stroke-linejoin:miter;stroke-miterlimit:4;stroke-opacity:0.75;stroke-dasharray:none;stroke-dashoffset:0" />

    <path
       d="m 0,585 300,0"
       id="gold-585"
       style="fill:none;stroke:#ff0000;stroke-width:1;stroke-linecap:square;stroke-linejoin:miter;stroke-miterlimit:4;stroke-opacity:0.75;stroke-dasharray:none;stroke-dashoffset:0" />

    <path
       d="m 0,631 300,0"
       id="gold-631"
       style="fill:none;stroke:#ff0000;stroke-width:1;stroke-linecap:square;stroke-linejoin:miter;stroke-miterlimit:4;stroke-opacity:0.75;stroke-dasharray:none;stroke-dashoffset:0" />

  <g transform="translate(0,50)">
    <rect width="12" height="8" rx="5" ry="5" x="0" y="-4"
       style="color:#000000;fill:#ffffff;stroke:#000000;stroke-width:0.3;" />
    <text x="3" y="2" style="font-size:6px;font-family:sans-serif">50</text>
  </g>

  <g transform="translate(0,84)">
    <rect width="12" height="8" rx="5" ry="5" x="0" y="-4"
       style="color:#000000;fill:#ffffff;stroke:#000000;stroke-width:0.3;" />
    <text x="3" y="2" style="font-size:6px;font-family:sans-serif">84</text>
  </g>

  <g transform="translate(0,107)">
    <rect width="16" height="8" rx="5" ry="5" x="0" y="-4"
       style="color:#000000;fill:#ffffff;stroke:#000000;stroke-width:0.3;" />
    <text x="3" y="2" style="font-size:6px;font-family:sans-serif">107</text>
  </g>

  <g transform="translate(0,220)">
    <rect width="16" height="8" rx="5" ry="5" x="0" y="-4"
       style="color:#000000;fill:#ffffff;stroke:#000000;stroke-width:0.3;" />
    <text x="3" y="2" style="font-size:6px;font-family:sans-serif">220</text>
  </g>

  <g transform="translate(0,293)">
    <rect width="16" height="8" rx="5" ry="5" x="0" y="-4"
       style="color:#000000;fill:#ffffff;stroke:#000000;stroke-width:0.3;" />
    <text x="3" y="2" style="font-size:6px;font-family:sans-serif">293</text>
  </g>

  <g transform="translate(0,514)">
    <rect width="16" height="8" rx="5" ry="5" x="0" y="-4"
       style="color:#000000;fill:#ffffff;stroke:#000000;stroke-width:0.3;" />
    <text x="3" y="2" style="font-size:6px;font-family:sans-serif">514</text>
  </g>

  <g transform="translate(0,585)">
    <rect width="16" height="8" rx="5" ry="5" x="0" y="-4"
       style="color:#000000;fill:#ffffff;stroke:#000000;stroke-width:0.3;" />
    <text x="3" y="2" style="font-size:6px;font-family:sans-serif">585</text>
  </g>

  <g transform="translate(0,616)">
    <rect width="16" height="8" rx="5" ry="5" x="0" y="-4"
       style="color:#000000;fill:#ffffff;stroke:#000000;stroke-width:0.3;" />
    <text x="3" y="2" style="font-size:6px;font-family:sans-serif">616</text>
  </g>

  <g transform="translate(0,646)">
    <rect width="16" height="8" rx="5" ry="5" x="0" y="-4"
       style="color:#000000;fill:#ffffff;stroke:#000000;stroke-width:0.3;" />
    <text x="3" y="2" style="font-size:6px;font-family:sans-serif">646</text>
  </g>

  <g transform="translate(100,84)">
    <rect width="12" height="8" rx="5" ry="5" x="0" y="-4"
       style="color:#000000;fill:#ffffff;stroke:#000000;stroke-width:0.3;" />
    <text x="3" y="2" style="font-size:6px;font-family:sans-serif">84</text>
  </g>

  <g transform="translate(100,151)">
    <rect width="16" height="8" rx="5" ry="5" x="0" y="-4"
       style="color:#000000;fill:#ffffff;stroke:#000000;stroke-width:0.3;" />
    <text x="3" y="2" style="font-size:6px;font-family:sans-serif">151</text>
  </g>

  <g transform="translate(100,220)">
    <rect width="16" height="8" rx="5" ry="5" x="0" y="-4"
       style="color:#000000;fill:#ffffff;stroke:#000000;stroke-width:0.3;" />
    <text x="3" y="2" style="font-size:6px;font-family:sans-serif">220</text>
  </g>

  <g transform="translate(100,264)">
    <rect width="16" height="8" rx="5" ry="5" x="0" y="-4"
       style="color:#000000;fill:#ffffff;stroke:#000000;stroke-width:0.3;" />
    <text x="3" y="2" style="font-size:6px;font-family:sans-serif">264</text>
  </g>

  <g transform="translate(100,293)">
    <rect width="16" height="8" rx="5" ry="5" x="0" y="-4"
       style="color:#000000;fill:#ffffff;stroke:#000000;stroke-width:0.3;" />
    <text x="3" y="2" style="font-size:6px;font-family:sans-serif">293</text>
  </g>

  <g transform="translate(100,414)">
    <rect width="16" height="8" rx="5" ry="5" x="0" y="-4"
       style="color:#000000;fill:#ffffff;stroke:#000000;stroke-width:0.3;" />
    <text x="3" y="2" style="font-size:6px;font-family:sans-serif">414</text>
  </g>

  <g transform="translate(100,495)">
    <rect width="16" height="8" rx="5" ry="5" x="0" y="-4"
       style="color:#000000;fill:#ffffff;stroke:#000000;stroke-width:0.3;" />
    <text x="3" y="2" style="font-size:6px;font-family:sans-serif">495</text>
  </g>

  <g transform="translate(100,547)">
    <rect width="16" height="8" rx="5" ry="5" x="0" y="-4"
       style="color:#000000;fill:#ffffff;stroke:#000000;stroke-width:0.3;" />
    <text x="3" y="2" style="font-size:6px;font-family:sans-serif">547</text>
  </g>

  <g transform="translate(100,585)">
    <rect width="16" height="8" rx="5" ry="5" x="0" y="-4"
       style="color:#000000;fill:#ffffff;stroke:#000000;stroke-width:0.3;" />
    <text x="3" y="2" style="font-size:6px;font-family:sans-serif">585</text>
  </g>

  <g transform="translate(100,616)">
    <rect width="16" height="8" rx="5" ry="5" x="0" y="-4"
       style="color:#000000;fill:#ffffff;stroke:#000000;stroke-width:0.3;" />
    <text x="3" y="2" style="font-size:6px;font-family:sans-serif">616</text>
  </g>

  <g transform="translate(100,646)">
    <rect width="16" height="8" rx="5" ry="5" x="0" y="-4"
       style="color:#000000;fill:#ffffff;stroke:#000000;stroke-width:0.3;" />
    <text x="3" y="2" style="font-size:6px;font-family:sans-serif">646</text>
  </g>

  <g transform="translate(100,774)">
    <rect width="16" height="8" rx="5" ry="5" x="0" y="-4"
       style="color:#000000;fill:#ffffff;stroke:#000000;stroke-width:0.3;" />
    <text x="3" y="2" style="font-size:6px;font-family:sans-serif">774</text>
  </g>

  <g transform="translate(200,33)">
    <rect width="12" height="8" rx="5" ry="5" x="0" y="-4"
       style="color:#000000;fill:#ffffff;stroke:#000000;stroke-width:0.3;" />
    <text x="3" y="2" style="font-size:6px;font-family:sans-serif">33</text>
  </g>

  <g transform="translate(200,50)">
    <rect width="12" height="8" rx="5" ry="5" x="0" y="-4"
       style="color:#000000;fill:#ffffff;stroke:#000000;stroke-width:0.3;" />
    <text x="3" y="2" style="font-size:6px;font-family:sans-serif">50</text>
  </g>

  <g transform="translate(200,84)">
    <rect width="12" height="8" rx="5" ry="5" x="0" y="-4"
       style="color:#000000;fill:#ffffff;stroke:#000000;stroke-width:0.3;" />
    <text x="3" y="2" style="font-size:6px;font-family:sans-serif">84</text>
  </g>

  <g transform="translate(200,107)">
    <rect width="16" height="8" rx="5" ry="5" x="0" y="-4"
       style="color:#000000;fill:#ffffff;stroke:#000000;stroke-width:0.3;" />
    <text x="3" y="2" style="font-size:6px;font-family:sans-serif">107</text>
  </g>

  <g transform="translate(200,220)">
    <rect width="16" height="8" rx="5" ry="5" x="0" y="-4"
       style="color:#000000;fill:#ffffff;stroke:#000000;stroke-width:0.3;" />
    <text x="3" y="2" style="font-size:6px;font-family:sans-serif">220</text>
  </g>

  <g transform="translate(200,293)">
    <rect width="16" height="8" rx="5" ry="5" x="0" y="-4"
       style="color:#000000;fill:#ffffff;stroke:#000000;stroke-width:0.3;" />
    <text x="3" y="2" style="font-size:6px;font-family:sans-serif">293</text>
  </g>

  <g transform="translate(200,514)">
    <rect width="16" height="8" rx="5" ry="5" x="0" y="-4"
       style="color:#000000;fill:#ffffff;stroke:#000000;stroke-width:0.3;" />
    <text x="3" y="2" style="font-size:6px;font-family:sans-serif">514</text>
  </g>

  <g transform="translate(200,585)">
    <rect width="16" height="8" rx="5" ry="5" x="0" y="-4"
       style="color:#000000;fill:#ffffff;stroke:#000000;stroke-width:0.3;" />
    <text x="3" y="2" style="font-size:6px;font-family:sans-serif">585</text>
  </g>

  <g transform="translate(200,646)">
    <rect width="16" height="8" rx="5" ry="5" x="0" y="-4"
       style="color:#000000;fill:#ffffff;stroke:#000000;stroke-width:0.3;" />
    <text x="3" y="2" style="font-size:6px;font-family:sans-serif">646</text>
  </g>

  </g>
</svg>
