<?xml version="1.0" encoding="UTF-8" standalone="no"?>
<svg xmlns:dc="http://purl.org/dc/elements/1.1/" xmlns:cc="http://creativecommons.org/ns#" xmlns:rdf="http://www.w3.org/1999/02/22-rdf-syntax-ns#" xmlns:svg="http://www.w3.org/2000/svg" xmlns="http://www.w3.org/2000/svg" version="1.1" width="300" height="693" id="svg2">
  <g id="layer1">

    <path
       d="m 0,183 100,0"
       id="annotators:brennan-183"
       style="fill:none;stroke:#000000;stroke-width:1;stroke-linecap:square;stroke-linejoin:miter;stroke-miterlimit:4;stroke-opacity:1;stroke-dasharray:3, 3;stroke-dashoffset:0" />

    <path
       d="m 0,224 100,0"
       id="annotators:brennan-224"
       style="fill:none;stroke:#000000;stroke-width:1;stroke-linecap:square;stroke-linejoin:miter;stroke-miterlimit:4;stroke-opacity:1;stroke-dasharray:3, 3;stroke-dashoffset:0" />

    <path
       d="m 0,287 100,0"
       id="annotators:brennan-287"
       style="fill:none;stroke:#000000;stroke-width:1;stroke-linecap:square;stroke-linejoin:miter;stroke-miterlimit:4;stroke-opacity:1;stroke-dasharray:3, 3;stroke-dashoffset:0" />

    <path
       d="m 0,404 100,0"
       id="annotators:brennan-404"
       style="fill:none;stroke:#000000;stroke-width:1;stroke-linecap:square;stroke-linejoin:miter;stroke-miterlimit:4;stroke-opacity:1;stroke-dasharray:3, 3;stroke-dashoffset:0" />

    <path
       d="m 0,455 100,0"
       id="annotators:brennan-455"
       style="fill:none;stroke:#000000;stroke-width:1;stroke-linecap:square;stroke-linejoin:miter;stroke-miterlimit:4;stroke-opacity:1;stroke-dasharray:3, 3;stroke-dashoffset:0" />

    <path
       d="m 0,569 100,0"
       id="annotators:brennan-569"
       style="fill:none;stroke:#000000;stroke-width:1;stroke-linecap:square;stroke-linejoin:miter;stroke-miterlimit:4;stroke-opacity:1;stroke-dasharray:3, 3;stroke-dashoffset:0" />

    <path
       d="m 0,613 100,0"
       id="annotators:brennan-613"
       style="fill:none;stroke:#000000;stroke-width:1;stroke-linecap:square;stroke-linejoin:miter;stroke-miterlimit:4;stroke-opacity:1;stroke-dasharray:3, 3;stroke-dashoffset:0" />

    <path
       d="m 100,41 100,0"
       id="annotators:docsouth-41"
       style="fill:none;stroke:#000000;stroke-width:1;stroke-linecap:square;stroke-linejoin:miter;stroke-miterlimit:4;stroke-opacity:1;stroke-dasharray:3, 3;stroke-dashoffset:0" />

    <path
       d="m 100,58 100,0"
       id="annotators:docsouth-58"
       style="fill:none;stroke:#000000;stroke-width:1;stroke-linecap:square;stroke-linejoin:miter;stroke-miterlimit:4;stroke-opacity:1;stroke-dasharray:3, 3;stroke-dashoffset:0" />

    <path
       d="m 100,85 100,0"
       id="annotators:docsouth-85"
       style="fill:none;stroke:#000000;stroke-width:1;stroke-linecap:square;stroke-linejoin:miter;stroke-miterlimit:4;stroke-opacity:1;stroke-dasharray:3, 3;stroke-dashoffset:0" />

    <path
       d="m 100,172 100,0"
       id="annotators:docsouth-172"
       style="fill:none;stroke:#000000;stroke-width:1;stroke-linecap:square;stroke-linejoin:miter;stroke-miterlimit:4;stroke-opacity:1;stroke-dasharray:3, 3;stroke-dashoffset:0" />

    <path
       d="m 100,183 100,0"
       id="annotators:docsouth-183"
       style="fill:none;stroke:#000000;stroke-width:1;stroke-linecap:square;stroke-linejoin:miter;stroke-miterlimit:4;stroke-opacity:1;stroke-dasharray:3, 3;stroke-dashoffset:0" />

    <path
       d="m 100,220 100,0"
       id="annotators:docsouth-220"
       style="fill:none;stroke:#000000;stroke-width:1;stroke-linecap:square;stroke-linejoin:miter;stroke-miterlimit:4;stroke-opacity:1;stroke-dasharray:3, 3;stroke-dashoffset:0" />

    <path
       d="m 100,238 100,0"
       id="annotators:docsouth-238"
       style="fill:none;stroke:#000000;stroke-width:1;stroke-linecap:square;stroke-linejoin:miter;stroke-miterlimit:4;stroke-opacity:1;stroke-dasharray:3, 3;stroke-dashoffset:0" />

    <path
       d="m 100,257 100,0"
       id="annotators:docsouth-257"
       style="fill:none;stroke:#000000;stroke-width:1;stroke-linecap:square;stroke-linejoin:miter;stroke-miterlimit:4;stroke-opacity:1;stroke-dasharray:3, 3;stroke-dashoffset:0" />

    <path
       d="m 100,287 100,0"
       id="annotators:docsouth-287"
       style="fill:none;stroke:#000000;stroke-width:1;stroke-linecap:square;stroke-linejoin:miter;stroke-miterlimit:4;stroke-opacity:1;stroke-dasharray:3, 3;stroke-dashoffset:0" />

    <path
       d="m 100,315 100,0"
       id="annotators:docsouth-315"
       style="fill:none;stroke:#000000;stroke-width:1;stroke-linecap:square;stroke-linejoin:miter;stroke-miterlimit:4;stroke-opacity:1;stroke-dasharray:3, 3;stroke-dashoffset:0" />

    <path
       d="m 100,382 100,0"
       id="annotators:docsouth-382"
       style="fill:none;stroke:#000000;stroke-width:1;stroke-linecap:square;stroke-linejoin:miter;stroke-miterlimit:4;stroke-opacity:1;stroke-dasharray:3, 3;stroke-dashoffset:0" />

    <path
       d="m 100,401 100,0"
       id="annotators:docsouth-401"
       style="fill:none;stroke:#000000;stroke-width:1;stroke-linecap:square;stroke-linejoin:miter;stroke-miterlimit:4;stroke-opacity:1;stroke-dasharray:3, 3;stroke-dashoffset:0" />

    <path
       d="m 100,433 100,0"
       id="annotators:docsouth-433"
       style="fill:none;stroke:#000000;stroke-width:1;stroke-linecap:square;stroke-linejoin:miter;stroke-miterlimit:4;stroke-opacity:1;stroke-dasharray:3, 3;stroke-dashoffset:0" />

    <path
       d="m 100,489 100,0"
       id="annotators:docsouth-489"
       style="fill:none;stroke:#000000;stroke-width:1;stroke-linecap:square;stroke-linejoin:miter;stroke-miterlimit:4;stroke-opacity:1;stroke-dasharray:3, 3;stroke-dashoffset:0" />

    <path
       d="m 100,560 100,0"
       id="annotators:docsouth-560"
       style="fill:none;stroke:#000000;stroke-width:1;stroke-linecap:square;stroke-linejoin:miter;stroke-miterlimit:4;stroke-opacity:1;stroke-dasharray:3, 3;stroke-dashoffset:0" />

    <path
       d="m 100,570 100,0"
       id="annotators:docsouth-570"
       style="fill:none;stroke:#000000;stroke-width:1;stroke-linecap:square;stroke-linejoin:miter;stroke-miterlimit:4;stroke-opacity:1;stroke-dasharray:3, 3;stroke-dashoffset:0" />

    <path
       d="m 100,613 100,0"
       id="annotators:docsouth-613"
       style="fill:none;stroke:#000000;stroke-width:1;stroke-linecap:square;stroke-linejoin:miter;stroke-miterlimit:4;stroke-opacity:1;stroke-dasharray:3, 3;stroke-dashoffset:0" />

    <path
       d="m 100,616 100,0"
       id="annotators:docsouth-616"
       style="fill:none;stroke:#000000;stroke-width:1;stroke-linecap:square;stroke-linejoin:miter;stroke-miterlimit:4;stroke-opacity:1;stroke-dasharray:3, 3;stroke-dashoffset:0" />

    <path
       d="m 100,669 100,0"
       id="annotators:docsouth-669"
       style="fill:none;stroke:#000000;stroke-width:1;stroke-linecap:square;stroke-linejoin:miter;stroke-miterlimit:4;stroke-opacity:1;stroke-dasharray:3, 3;stroke-dashoffset:0" />

    <path
       d="m 100,673 100,0"
       id="annotators:docsouth-673"
       style="fill:none;stroke:#000000;stroke-width:1;stroke-linecap:square;stroke-linejoin:miter;stroke-miterlimit:4;stroke-opacity:1;stroke-dasharray:3, 3;stroke-dashoffset:0" />

    <path
       d="m 200,5 100,0"
       id="annotators:mannheim-5"
       style="fill:none;stroke:#000000;stroke-width:1;stroke-linecap:square;stroke-linejoin:miter;stroke-miterlimit:4;stroke-opacity:1;stroke-dasharray:3, 3;stroke-dashoffset:0" />

    <path
       d="m 200,14 100,0"
       id="annotators:mannheim-14"
       style="fill:none;stroke:#000000;stroke-width:1;stroke-linecap:square;stroke-linejoin:miter;stroke-miterlimit:4;stroke-opacity:1;stroke-dasharray:3, 3;stroke-dashoffset:0" />

    <path
       d="m 200,22 100,0"
       id="annotators:mannheim-22"
       style="fill:none;stroke:#000000;stroke-width:1;stroke-linecap:square;stroke-linejoin:miter;stroke-miterlimit:4;stroke-opacity:1;stroke-dasharray:3, 3;stroke-dashoffset:0" />

    <path
       d="m 200,34 100,0"
       id="annotators:mannheim-34"
       style="fill:none;stroke:#000000;stroke-width:1;stroke-linecap:square;stroke-linejoin:miter;stroke-miterlimit:4;stroke-opacity:1;stroke-dasharray:3, 3;stroke-dashoffset:0" />

    <path
       d="m 200,38 100,0"
       id="annotators:mannheim-38"
       style="fill:none;stroke:#000000;stroke-width:1;stroke-linecap:square;stroke-linejoin:miter;stroke-miterlimit:4;stroke-opacity:1;stroke-dasharray:3, 3;stroke-dashoffset:0" />

    <path
       d="m 200,46 100,0"
       id="annotators:mannheim-46"
       style="fill:none;stroke:#000000;stroke-width:1;stroke-linecap:square;stroke-linejoin:miter;stroke-miterlimit:4;stroke-opacity:1;stroke-dasharray:3, 3;stroke-dashoffset:0" />

    <path
       d="m 200,130 100,0"
       id="annotators:mannheim-130"
       style="fill:none;stroke:#000000;stroke-width:1;stroke-linecap:square;stroke-linejoin:miter;stroke-miterlimit:4;stroke-opacity:1;stroke-dasharray:3, 3;stroke-dashoffset:0" />

    <path
       d="m 200,183 100,0"
       id="annotators:mannheim-183"
       style="fill:none;stroke:#000000;stroke-width:1;stroke-linecap:square;stroke-linejoin:miter;stroke-miterlimit:4;stroke-opacity:1;stroke-dasharray:3, 3;stroke-dashoffset:0" />

    <path
       d="m 200,209 100,0"
       id="annotators:mannheim-209"
       style="fill:none;stroke:#000000;stroke-width:1;stroke-linecap:square;stroke-linejoin:miter;stroke-miterlimit:4;stroke-opacity:1;stroke-dasharray:3, 3;stroke-dashoffset:0" />

    <path
       d="m 200,225 100,0"
       id="annotators:mannheim-225"
       style="fill:none;stroke:#000000;stroke-width:1;stroke-linecap:square;stroke-linejoin:miter;stroke-miterlimit:4;stroke-opacity:1;stroke-dasharray:3, 3;stroke-dashoffset:0" />

    <path
       d="m 200,239 100,0"
       id="annotators:mannheim-239"
       style="fill:none;stroke:#000000;stroke-width:1;stroke-linecap:square;stroke-linejoin:miter;stroke-miterlimit:4;stroke-opacity:1;stroke-dasharray:3, 3;stroke-dashoffset:0" />

    <path
       d="m 200,282 100,0"
       id="annotators:mannheim-282"
       style="fill:none;stroke:#000000;stroke-width:1;stroke-linecap:square;stroke-linejoin:miter;stroke-miterlimit:4;stroke-opacity:1;stroke-dasharray:3, 3;stroke-dashoffset:0" />

    <path
       d="m 200,287 100,0"
       id="annotators:mannheim-287"
       style="fill:none;stroke:#000000;stroke-width:1;stroke-linecap:square;stroke-linejoin:miter;stroke-miterlimit:4;stroke-opacity:1;stroke-dasharray:3, 3;stroke-dashoffset:0" />

    <path
       d="m 200,338 100,0"
       id="annotators:mannheim-338"
       style="fill:none;stroke:#000000;stroke-width:1;stroke-linecap:square;stroke-linejoin:miter;stroke-miterlimit:4;stroke-opacity:1;stroke-dasharray:3, 3;stroke-dashoffset:0" />

    <path
       d="m 200,404 100,0"
       id="annotators:mannheim-404"
       style="fill:none;stroke:#000000;stroke-width:1;stroke-linecap:square;stroke-linejoin:miter;stroke-miterlimit:4;stroke-opacity:1;stroke-dasharray:3, 3;stroke-dashoffset:0" />

    <path
       d="m 200,455 100,0"
       id="annotators:mannheim-455"
       style="fill:none;stroke:#000000;stroke-width:1;stroke-linecap:square;stroke-linejoin:miter;stroke-miterlimit:4;stroke-opacity:1;stroke-dasharray:3, 3;stroke-dashoffset:0" />

    <path
       d="m 200,489 100,0"
       id="annotators:mannheim-489"
       style="fill:none;stroke:#000000;stroke-width:1;stroke-linecap:square;stroke-linejoin:miter;stroke-miterlimit:4;stroke-opacity:1;stroke-dasharray:3, 3;stroke-dashoffset:0" />

    <path
       d="m 200,527 100,0"
       id="annotators:mannheim-527"
       style="fill:none;stroke:#000000;stroke-width:1;stroke-linecap:square;stroke-linejoin:miter;stroke-miterlimit:4;stroke-opacity:1;stroke-dasharray:3, 3;stroke-dashoffset:0" />

    <path
       d="m 200,564 100,0"
       id="annotators:mannheim-564"
       style="fill:none;stroke:#000000;stroke-width:1;stroke-linecap:square;stroke-linejoin:miter;stroke-miterlimit:4;stroke-opacity:1;stroke-dasharray:3, 3;stroke-dashoffset:0" />

    <path
       d="m 200,571 100,0"
       id="annotators:mannheim-571"
       style="fill:none;stroke:#000000;stroke-width:1;stroke-linecap:square;stroke-linejoin:miter;stroke-miterlimit:4;stroke-opacity:1;stroke-dasharray:3, 3;stroke-dashoffset:0" />

    <path
       d="m 200,597 100,0"
       id="annotators:mannheim-597"
       style="fill:none;stroke:#000000;stroke-width:1;stroke-linecap:square;stroke-linejoin:miter;stroke-miterlimit:4;stroke-opacity:1;stroke-dasharray:3, 3;stroke-dashoffset:0" />

    <path
       d="m 200,613 100,0"
       id="annotators:mannheim-613"
       style="fill:none;stroke:#000000;stroke-width:1;stroke-linecap:square;stroke-linejoin:miter;stroke-miterlimit:4;stroke-opacity:1;stroke-dasharray:3, 3;stroke-dashoffset:0" />

    <path
       d="m 200,640 100,0"
       id="annotators:mannheim-640"
       style="fill:none;stroke:#000000;stroke-width:1;stroke-linecap:square;stroke-linejoin:miter;stroke-miterlimit:4;stroke-opacity:1;stroke-dasharray:3, 3;stroke-dashoffset:0" />

    <path
       d="m 200,660 100,0"
       id="annotators:mannheim-660"
       style="fill:none;stroke:#000000;stroke-width:1;stroke-linecap:square;stroke-linejoin:miter;stroke-miterlimit:4;stroke-opacity:1;stroke-dasharray:3, 3;stroke-dashoffset:0" />

    <path
       d="m 200,674 100,0"
       id="annotators:mannheim-674"
       style="fill:none;stroke:#000000;stroke-width:1;stroke-linecap:square;stroke-linejoin:miter;stroke-miterlimit:4;stroke-opacity:1;stroke-dasharray:3, 3;stroke-dashoffset:0" />

    <path
       d="m 0,46 300,0"
       id="gold-46"
       style="fill:none;stroke:#ff0000;stroke-width:1;stroke-linecap:square;stroke-linejoin:miter;stroke-miterlimit:4;stroke-opacity:0.75;stroke-dasharray:none;stroke-dashoffset:0" />

    <path
       d="m 0,180 300,0"
       id="gold-180"
       style="fill:none;stroke:#ff0000;stroke-width:1;stroke-linecap:square;stroke-linejoin:miter;stroke-miterlimit:4;stroke-opacity:0.75;stroke-dasharray:none;stroke-dashoffset:0" />

    <path
       d="m 0,235 300,0"
       id="gold-235"
       style="fill:none;stroke:#ff0000;stroke-width:1;stroke-linecap:square;stroke-linejoin:miter;stroke-miterlimit:4;stroke-opacity:0.75;stroke-dasharray:none;stroke-dashoffset:0" />

    <path
       d="m 0,287 300,0"
       id="gold-287"
       style="fill:none;stroke:#ff0000;stroke-width:1;stroke-linecap:square;stroke-linejoin:miter;stroke-miterlimit:4;stroke-opacity:0.75;stroke-dasharray:none;stroke-dashoffset:0" />

    <path
       d="m 0,403 300,0"
       id="gold-403"
       style="fill:none;stroke:#ff0000;stroke-width:1;stroke-linecap:square;stroke-linejoin:miter;stroke-miterlimit:4;stroke-opacity:0.75;stroke-dasharray:none;stroke-dashoffset:0" />

    <path
       d="m 0,455 300,0"
       id="gold-455"
       style="fill:none;stroke:#ff0000;stroke-width:1;stroke-linecap:square;stroke-linejoin:miter;stroke-miterlimit:4;stroke-opacity:0.75;stroke-dasharray:none;stroke-dashoffset:0" />

    <path
       d="m 0,489 300,0"
       id="gold-489"
       style="fill:none;stroke:#ff0000;stroke-width:1;stroke-linecap:square;stroke-linejoin:miter;stroke-miterlimit:4;stroke-opacity:0.75;stroke-dasharray:none;stroke-dashoffset:0" />

    <path
       d="m 0,566 300,0"
       id="gold-566"
       style="fill:none;stroke:#ff0000;stroke-width:1;stroke-linecap:square;stroke-linejoin:miter;stroke-miterlimit:4;stroke-opacity:0.75;stroke-dasharray:none;stroke-dashoffset:0" />

    <path
       d="m 0,614 300,0"
       id="gold-614"
       style="fill:none;stroke:#ff0000;stroke-width:1;stroke-linecap:square;stroke-linejoin:miter;stroke-miterlimit:4;stroke-opacity:0.75;stroke-dasharray:none;stroke-dashoffset:0" />

    <path
       d="m 0,672 300,0"
       id="gold-672"
       style="fill:none;stroke:#ff0000;stroke-width:1;stroke-linecap:square;stroke-linejoin:miter;stroke-miterlimit:4;stroke-opacity:0.75;stroke-dasharray:none;stroke-dashoffset:0" />

  <g transform="translate(0,183)">
    <rect width="16" height="8" rx="5" ry="5" x="0" y="-4"
       style="color:#000000;fill:#ffffff;stroke:#000000;stroke-width:0.3;" />
    <text x="3" y="2" style="font-size:6px;font-family:sans-serif">183</text>
  </g>

  <g transform="translate(0,224)">
    <rect width="16" height="8" rx="5" ry="5" x="0" y="-4"
       style="color:#000000;fill:#ffffff;stroke:#000000;stroke-width:0.3;" />
    <text x="3" y="2" style="font-size:6px;font-family:sans-serif">224</text>
  </g>

  <g transform="translate(0,287)">
    <rect width="16" height="8" rx="5" ry="5" x="0" y="-4"
       style="color:#000000;fill:#ffffff;stroke:#000000;stroke-width:0.3;" />
    <text x="3" y="2" style="font-size:6px;font-family:sans-serif">287</text>
  </g>

  <g transform="translate(0,404)">
    <rect width="16" height="8" rx="5" ry="5" x="0" y="-4"
       style="color:#000000;fill:#ffffff;stroke:#000000;stroke-width:0.3;" />
    <text x="3" y="2" style="font-size:6px;font-family:sans-serif">404</text>
  </g>

  <g transform="translate(0,455)">
    <rect width="16" height="8" rx="5" ry="5" x="0" y="-4"
       style="color:#000000;fill:#ffffff;stroke:#000000;stroke-width:0.3;" />
    <text x="3" y="2" style="font-size:6px;font-family:sans-serif">455</text>
  </g>

  <g transform="translate(0,569)">
    <rect width="16" height="8" rx="5" ry="5" x="0" y="-4"
       style="color:#000000;fill:#ffffff;stroke:#000000;stroke-width:0.3;" />
    <text x="3" y="2" style="font-size:6px;font-family:sans-serif">569</text>
  </g>

  <g transform="translate(0,613)">
    <rect width="16" height="8" rx="5" ry="5" x="0" y="-4"
       style="color:#000000;fill:#ffffff;stroke:#000000;stroke-width:0.3;" />
    <text x="3" y="2" style="font-size:6px;font-family:sans-serif">613</text>
  </g>

  <g transform="translate(100,41)">
    <rect width="12" height="8" rx="5" ry="5" x="0" y="-4"
       style="color:#000000;fill:#ffffff;stroke:#000000;stroke-width:0.3;" />
    <text x="3" y="2" style="font-size:6px;font-family:sans-serif">41</text>
  </g>

  <g transform="translate(100,58)">
    <rect width="12" height="8" rx="5" ry="5" x="0" y="-4"
       style="color:#000000;fill:#ffffff;stroke:#000000;stroke-width:0.3;" />
    <text x="3" y="2" style="font-size:6px;font-family:sans-serif">58</text>
  </g>

  <g transform="translate(100,85)">
    <rect width="12" height="8" rx="5" ry="5" x="0" y="-4"
       style="color:#000000;fill:#ffffff;stroke:#000000;stroke-width:0.3;" />
    <text x="3" y="2" style="font-size:6px;font-family:sans-serif">85</text>
  </g>

  <g transform="translate(100,172)">
    <rect width="16" height="8" rx="5" ry="5" x="0" y="-4"
       style="color:#000000;fill:#ffffff;stroke:#000000;stroke-width:0.3;" />
    <text x="3" y="2" style="font-size:6px;font-family:sans-serif">172</text>
  </g>

  <g transform="translate(100,183)">
    <rect width="16" height="8" rx="5" ry="5" x="0" y="-4"
       style="color:#000000;fill:#ffffff;stroke:#000000;stroke-width:0.3;" />
    <text x="3" y="2" style="font-size:6px;font-family:sans-serif">183</text>
  </g>

  <g transform="translate(100,220)">
    <rect width="16" height="8" rx="5" ry="5" x="0" y="-4"
       style="color:#000000;fill:#ffffff;stroke:#000000;stroke-width:0.3;" />
    <text x="3" y="2" style="font-size:6px;font-family:sans-serif">220</text>
  </g>

  <g transform="translate(100,238)">
    <rect width="16" height="8" rx="5" ry="5" x="0" y="-4"
       style="color:#000000;fill:#ffffff;stroke:#000000;stroke-width:0.3;" />
    <text x="3" y="2" style="font-size:6px;font-family:sans-serif">238</text>
  </g>

  <g transform="translate(100,257)">
    <rect width="16" height="8" rx="5" ry="5" x="0" y="-4"
       style="color:#000000;fill:#ffffff;stroke:#000000;stroke-width:0.3;" />
    <text x="3" y="2" style="font-size:6px;font-family:sans-serif">257</text>
  </g>

  <g transform="translate(100,287)">
    <rect width="16" height="8" rx="5" ry="5" x="0" y="-4"
       style="color:#000000;fill:#ffffff;stroke:#000000;stroke-width:0.3;" />
    <text x="3" y="2" style="font-size:6px;font-family:sans-serif">287</text>
  </g>

  <g transform="translate(100,315)">
    <rect width="16" height="8" rx="5" ry="5" x="0" y="-4"
       style="color:#000000;fill:#ffffff;stroke:#000000;stroke-width:0.3;" />
    <text x="3" y="2" style="font-size:6px;font-family:sans-serif">315</text>
  </g>

  <g transform="translate(100,382)">
    <rect width="16" height="8" rx="5" ry="5" x="0" y="-4"
       style="color:#000000;fill:#ffffff;stroke:#000000;stroke-width:0.3;" />
    <text x="3" y="2" style="font-size:6px;font-family:sans-serif">382</text>
  </g>

  <g transform="translate(100,401)">
    <rect width="16" height="8" rx="5" ry="5" x="0" y="-4"
       style="color:#000000;fill:#ffffff;stroke:#000000;stroke-width:0.3;" />
    <text x="3" y="2" style="font-size:6px;font-family:sans-serif">401</text>
  </g>

  <g transform="translate(100,433)">
    <rect width="16" height="8" rx="5" ry="5" x="0" y="-4"
       style="color:#000000;fill:#ffffff;stroke:#000000;stroke-width:0.3;" />
    <text x="3" y="2" style="font-size:6px;font-family:sans-serif">433</text>
  </g>

  <g transform="translate(100,489)">
    <rect width="16" height="8" rx="5" ry="5" x="0" y="-4"
       style="color:#000000;fill:#ffffff;stroke:#000000;stroke-width:0.3;" />
    <text x="3" y="2" style="font-size:6px;font-family:sans-serif">489</text>
  </g>

  <g transform="translate(100,560)">
    <rect width="16" height="8" rx="5" ry="5" x="0" y="-4"
       style="color:#000000;fill:#ffffff;stroke:#000000;stroke-width:0.3;" />
    <text x="3" y="2" style="font-size:6px;font-family:sans-serif">560</text>
  </g>

  <g transform="translate(100,570)">
    <rect width="16" height="8" rx="5" ry="5" x="0" y="-4"
       style="color:#000000;fill:#ffffff;stroke:#000000;stroke-width:0.3;" />
    <text x="3" y="2" style="font-size:6px;font-family:sans-serif">570</text>
  </g>

  <g transform="translate(100,613)">
    <rect width="16" height="8" rx="5" ry="5" x="0" y="-4"
       style="color:#000000;fill:#ffffff;stroke:#000000;stroke-width:0.3;" />
    <text x="3" y="2" style="font-size:6px;font-family:sans-serif">613</text>
  </g>

  <g transform="translate(100,616)">
    <rect width="16" height="8" rx="5" ry="5" x="0" y="-4"
       style="color:#000000;fill:#ffffff;stroke:#000000;stroke-width:0.3;" />
    <text x="3" y="2" style="font-size:6px;font-family:sans-serif">616</text>
  </g>

  <g transform="translate(100,669)">
    <rect width="16" height="8" rx="5" ry="5" x="0" y="-4"
       style="color:#000000;fill:#ffffff;stroke:#000000;stroke-width:0.3;" />
    <text x="3" y="2" style="font-size:6px;font-family:sans-serif">669</text>
  </g>

  <g transform="translate(100,673)">
    <rect width="16" height="8" rx="5" ry="5" x="0" y="-4"
       style="color:#000000;fill:#ffffff;stroke:#000000;stroke-width:0.3;" />
    <text x="3" y="2" style="font-size:6px;font-family:sans-serif">673</text>
  </g>

  <g transform="translate(200,5)">
    <rect width="8" height="8" rx="5" ry="5" x="0" y="-4"
       style="color:#000000;fill:#ffffff;stroke:#000000;stroke-width:0.3;" />
    <text x="3" y="2" style="font-size:6px;font-family:sans-serif">5</text>
  </g>

  <g transform="translate(200,14)">
    <rect width="12" height="8" rx="5" ry="5" x="0" y="-4"
       style="color:#000000;fill:#ffffff;stroke:#000000;stroke-width:0.3;" />
    <text x="3" y="2" style="font-size:6px;font-family:sans-serif">14</text>
  </g>

  <g transform="translate(200,22)">
    <rect width="12" height="8" rx="5" ry="5" x="0" y="-4"
       style="color:#000000;fill:#ffffff;stroke:#000000;stroke-width:0.3;" />
    <text x="3" y="2" style="font-size:6px;font-family:sans-serif">22</text>
  </g>

  <g transform="translate(200,34)">
    <rect width="12" height="8" rx="5" ry="5" x="0" y="-4"
       style="color:#000000;fill:#ffffff;stroke:#000000;stroke-width:0.3;" />
    <text x="3" y="2" style="font-size:6px;font-family:sans-serif">34</text>
  </g>

  <g transform="translate(200,38)">
    <rect width="12" height="8" rx="5" ry="5" x="0" y="-4"
       style="color:#000000;fill:#ffffff;stroke:#000000;stroke-width:0.3;" />
    <text x="3" y="2" style="font-size:6px;font-family:sans-serif">38</text>
  </g>

  <g transform="translate(200,46)">
    <rect width="12" height="8" rx="5" ry="5" x="0" y="-4"
       style="color:#000000;fill:#ffffff;stroke:#000000;stroke-width:0.3;" />
    <text x="3" y="2" style="font-size:6px;font-family:sans-serif">46</text>
  </g>

  <g transform="translate(200,130)">
    <rect width="16" height="8" rx="5" ry="5" x="0" y="-4"
       style="color:#000000;fill:#ffffff;stroke:#000000;stroke-width:0.3;" />
    <text x="3" y="2" style="font-size:6px;font-family:sans-serif">130</text>
  </g>

  <g transform="translate(200,183)">
    <rect width="16" height="8" rx="5" ry="5" x="0" y="-4"
       style="color:#000000;fill:#ffffff;stroke:#000000;stroke-width:0.3;" />
    <text x="3" y="2" style="font-size:6px;font-family:sans-serif">183</text>
  </g>

  <g transform="translate(200,209)">
    <rect width="16" height="8" rx="5" ry="5" x="0" y="-4"
       style="color:#000000;fill:#ffffff;stroke:#000000;stroke-width:0.3;" />
    <text x="3" y="2" style="font-size:6px;font-family:sans-serif">209</text>
  </g>

  <g transform="translate(200,225)">
    <rect width="16" height="8" rx="5" ry="5" x="0" y="-4"
       style="color:#000000;fill:#ffffff;stroke:#000000;stroke-width:0.3;" />
    <text x="3" y="2" style="font-size:6px;font-family:sans-serif">225</text>
  </g>

  <g transform="translate(200,239)">
    <rect width="16" height="8" rx="5" ry="5" x="0" y="-4"
       style="color:#000000;fill:#ffffff;stroke:#000000;stroke-width:0.3;" />
    <text x="3" y="2" style="font-size:6px;font-family:sans-serif">239</text>
  </g>

  <g transform="translate(200,282)">
    <rect width="16" height="8" rx="5" ry="5" x="0" y="-4"
       style="color:#000000;fill:#ffffff;stroke:#000000;stroke-width:0.3;" />
    <text x="3" y="2" style="font-size:6px;font-family:sans-serif">282</text>
  </g>

  <g transform="translate(200,287)">
    <rect width="16" height="8" rx="5" ry="5" x="0" y="-4"
       style="color:#000000;fill:#ffffff;stroke:#000000;stroke-width:0.3;" />
    <text x="3" y="2" style="font-size:6px;font-family:sans-serif">287</text>
  </g>

  <g transform="translate(200,338)">
    <rect width="16" height="8" rx="5" ry="5" x="0" y="-4"
       style="color:#000000;fill:#ffffff;stroke:#000000;stroke-width:0.3;" />
    <text x="3" y="2" style="font-size:6px;font-family:sans-serif">338</text>
  </g>

  <g transform="translate(200,404)">
    <rect width="16" height="8" rx="5" ry="5" x="0" y="-4"
       style="color:#000000;fill:#ffffff;stroke:#000000;stroke-width:0.3;" />
    <text x="3" y="2" style="font-size:6px;font-family:sans-serif">404</text>
  </g>

  <g transform="translate(200,455)">
    <rect width="16" height="8" rx="5" ry="5" x="0" y="-4"
       style="color:#000000;fill:#ffffff;stroke:#000000;stroke-width:0.3;" />
    <text x="3" y="2" style="font-size:6px;font-family:sans-serif">455</text>
  </g>

  <g transform="translate(200,489)">
    <rect width="16" height="8" rx="5" ry="5" x="0" y="-4"
       style="color:#000000;fill:#ffffff;stroke:#000000;stroke-width:0.3;" />
    <text x="3" y="2" style="font-size:6px;font-family:sans-serif">489</text>
  </g>

  <g transform="translate(200,527)">
    <rect width="16" height="8" rx="5" ry="5" x="0" y="-4"
       style="color:#000000;fill:#ffffff;stroke:#000000;stroke-width:0.3;" />
    <text x="3" y="2" style="font-size:6px;font-family:sans-serif">527</text>
  </g>

  <g transform="translate(200,564)">
    <rect width="16" height="8" rx="5" ry="5" x="0" y="-4"
       style="color:#000000;fill:#ffffff;stroke:#000000;stroke-width:0.3;" />
    <text x="3" y="2" style="font-size:6px;font-family:sans-serif">564</text>
  </g>

  <g transform="translate(200,571)">
    <rect width="16" height="8" rx="5" ry="5" x="0" y="-4"
       style="color:#000000;fill:#ffffff;stroke:#000000;stroke-width:0.3;" />
    <text x="3" y="2" style="font-size:6px;font-family:sans-serif">571</text>
  </g>

  <g transform="translate(200,597)">
    <rect width="16" height="8" rx="5" ry="5" x="0" y="-4"
       style="color:#000000;fill:#ffffff;stroke:#000000;stroke-width:0.3;" />
    <text x="3" y="2" style="font-size:6px;font-family:sans-serif">597</text>
  </g>

  <g transform="translate(200,613)">
    <rect width="16" height="8" rx="5" ry="5" x="0" y="-4"
       style="color:#000000;fill:#ffffff;stroke:#000000;stroke-width:0.3;" />
    <text x="3" y="2" style="font-size:6px;font-family:sans-serif">613</text>
  </g>

  <g transform="translate(200,640)">
    <rect width="16" height="8" rx="5" ry="5" x="0" y="-4"
       style="color:#000000;fill:#ffffff;stroke:#000000;stroke-width:0.3;" />
    <text x="3" y="2" style="font-size:6px;font-family:sans-serif">640</text>
  </g>

  <g transform="translate(200,660)">
    <rect width="16" height="8" rx="5" ry="5" x="0" y="-4"
       style="color:#000000;fill:#ffffff;stroke:#000000;stroke-width:0.3;" />
    <text x="3" y="2" style="font-size:6px;font-family:sans-serif">660</text>
  </g>

  <g transform="translate(200,674)">
    <rect width="16" height="8" rx="5" ry="5" x="0" y="-4"
       style="color:#000000;fill:#ffffff;stroke:#000000;stroke-width:0.3;" />
    <text x="3" y="2" style="font-size:6px;font-family:sans-serif">674</text>
  </g>

  </g>
</svg>
