<?xml version="1.0" encoding="UTF-8" standalone="no"?>
<svg xmlns:dc="http://purl.org/dc/elements/1.1/" xmlns:cc="http://creativecommons.org/ns#" xmlns:rdf="http://www.w3.org/1999/02/22-rdf-syntax-ns#" xmlns:svg="http://www.w3.org/2000/svg" xmlns="http://www.w3.org/2000/svg" version="1.1" width="300" height="428" id="svg2">
  <g id="layer1">

    <path
       d="m 0,57 100,0"
       id="annotators:brennan-57"
       style="fill:none;stroke:#000000;stroke-width:1;stroke-linecap:square;stroke-linejoin:miter;stroke-miterlimit:4;stroke-opacity:1;stroke-dasharray:3, 3;stroke-dashoffset:0" />

    <path
       d="m 0,78 100,0"
       id="annotators:brennan-78"
       style="fill:none;stroke:#000000;stroke-width:1;stroke-linecap:square;stroke-linejoin:miter;stroke-miterlimit:4;stroke-opacity:1;stroke-dasharray:3, 3;stroke-dashoffset:0" />

    <path
       d="m 0,143 100,0"
       id="annotators:brennan-143"
       style="fill:none;stroke:#000000;stroke-width:1;stroke-linecap:square;stroke-linejoin:miter;stroke-miterlimit:4;stroke-opacity:1;stroke-dasharray:3, 3;stroke-dashoffset:0" />

    <path
       d="m 0,194 100,0"
       id="annotators:brennan-194"
       style="fill:none;stroke:#000000;stroke-width:1;stroke-linecap:square;stroke-linejoin:miter;stroke-miterlimit:4;stroke-opacity:1;stroke-dasharray:3, 3;stroke-dashoffset:0" />

    <path
       d="m 0,263 100,0"
       id="annotators:brennan-263"
       style="fill:none;stroke:#000000;stroke-width:1;stroke-linecap:square;stroke-linejoin:miter;stroke-miterlimit:4;stroke-opacity:1;stroke-dasharray:3, 3;stroke-dashoffset:0" />

    <path
       d="m 0,381 100,0"
       id="annotators:brennan-381"
       style="fill:none;stroke:#000000;stroke-width:1;stroke-linecap:square;stroke-linejoin:miter;stroke-miterlimit:4;stroke-opacity:1;stroke-dasharray:3, 3;stroke-dashoffset:0" />

    <path
       d="m 100,25 100,0"
       id="annotators:docsouth-25"
       style="fill:none;stroke:#000000;stroke-width:1;stroke-linecap:square;stroke-linejoin:miter;stroke-miterlimit:4;stroke-opacity:1;stroke-dasharray:3, 3;stroke-dashoffset:0" />

    <path
       d="m 100,51 100,0"
       id="annotators:docsouth-51"
       style="fill:none;stroke:#000000;stroke-width:1;stroke-linecap:square;stroke-linejoin:miter;stroke-miterlimit:4;stroke-opacity:1;stroke-dasharray:3, 3;stroke-dashoffset:0" />

    <path
       d="m 100,57 100,0"
       id="annotators:docsouth-57"
       style="fill:none;stroke:#000000;stroke-width:1;stroke-linecap:square;stroke-linejoin:miter;stroke-miterlimit:4;stroke-opacity:1;stroke-dasharray:3, 3;stroke-dashoffset:0" />

    <path
       d="m 100,74 100,0"
       id="annotators:docsouth-74"
       style="fill:none;stroke:#000000;stroke-width:1;stroke-linecap:square;stroke-linejoin:miter;stroke-miterlimit:4;stroke-opacity:1;stroke-dasharray:3, 3;stroke-dashoffset:0" />

    <path
       d="m 100,91 100,0"
       id="annotators:docsouth-91"
       style="fill:none;stroke:#000000;stroke-width:1;stroke-linecap:square;stroke-linejoin:miter;stroke-miterlimit:4;stroke-opacity:1;stroke-dasharray:3, 3;stroke-dashoffset:0" />

    <path
       d="m 100,143 100,0"
       id="annotators:docsouth-143"
       style="fill:none;stroke:#000000;stroke-width:1;stroke-linecap:square;stroke-linejoin:miter;stroke-miterlimit:4;stroke-opacity:1;stroke-dasharray:3, 3;stroke-dashoffset:0" />

    <path
       d="m 100,231 100,0"
       id="annotators:docsouth-231"
       style="fill:none;stroke:#000000;stroke-width:1;stroke-linecap:square;stroke-linejoin:miter;stroke-miterlimit:4;stroke-opacity:1;stroke-dasharray:3, 3;stroke-dashoffset:0" />

    <path
       d="m 100,263 100,0"
       id="annotators:docsouth-263"
       style="fill:none;stroke:#000000;stroke-width:1;stroke-linecap:square;stroke-linejoin:miter;stroke-miterlimit:4;stroke-opacity:1;stroke-dasharray:3, 3;stroke-dashoffset:0" />

    <path
       d="m 100,312 100,0"
       id="annotators:docsouth-312"
       style="fill:none;stroke:#000000;stroke-width:1;stroke-linecap:square;stroke-linejoin:miter;stroke-miterlimit:4;stroke-opacity:1;stroke-dasharray:3, 3;stroke-dashoffset:0" />

    <path
       d="m 100,343 100,0"
       id="annotators:docsouth-343"
       style="fill:none;stroke:#000000;stroke-width:1;stroke-linecap:square;stroke-linejoin:miter;stroke-miterlimit:4;stroke-opacity:1;stroke-dasharray:3, 3;stroke-dashoffset:0" />

    <path
       d="m 100,380 100,0"
       id="annotators:docsouth-380"
       style="fill:none;stroke:#000000;stroke-width:1;stroke-linecap:square;stroke-linejoin:miter;stroke-miterlimit:4;stroke-opacity:1;stroke-dasharray:3, 3;stroke-dashoffset:0" />

    <path
       d="m 100,422 100,0"
       id="annotators:docsouth-422"
       style="fill:none;stroke:#000000;stroke-width:1;stroke-linecap:square;stroke-linejoin:miter;stroke-miterlimit:4;stroke-opacity:1;stroke-dasharray:3, 3;stroke-dashoffset:0" />

    <path
       d="m 200,14 100,0"
       id="annotators:mannheim-14"
       style="fill:none;stroke:#000000;stroke-width:1;stroke-linecap:square;stroke-linejoin:miter;stroke-miterlimit:4;stroke-opacity:1;stroke-dasharray:3, 3;stroke-dashoffset:0" />

    <path
       d="m 200,23 100,0"
       id="annotators:mannheim-23"
       style="fill:none;stroke:#000000;stroke-width:1;stroke-linecap:square;stroke-linejoin:miter;stroke-miterlimit:4;stroke-opacity:1;stroke-dasharray:3, 3;stroke-dashoffset:0" />

    <path
       d="m 200,57 100,0"
       id="annotators:mannheim-57"
       style="fill:none;stroke:#000000;stroke-width:1;stroke-linecap:square;stroke-linejoin:miter;stroke-miterlimit:4;stroke-opacity:1;stroke-dasharray:3, 3;stroke-dashoffset:0" />

    <path
       d="m 200,74 100,0"
       id="annotators:mannheim-74"
       style="fill:none;stroke:#000000;stroke-width:1;stroke-linecap:square;stroke-linejoin:miter;stroke-miterlimit:4;stroke-opacity:1;stroke-dasharray:3, 3;stroke-dashoffset:0" />

    <path
       d="m 200,78 100,0"
       id="annotators:mannheim-78"
       style="fill:none;stroke:#000000;stroke-width:1;stroke-linecap:square;stroke-linejoin:miter;stroke-miterlimit:4;stroke-opacity:1;stroke-dasharray:3, 3;stroke-dashoffset:0" />

    <path
       d="m 200,104 100,0"
       id="annotators:mannheim-104"
       style="fill:none;stroke:#000000;stroke-width:1;stroke-linecap:square;stroke-linejoin:miter;stroke-miterlimit:4;stroke-opacity:1;stroke-dasharray:3, 3;stroke-dashoffset:0" />

    <path
       d="m 200,143 100,0"
       id="annotators:mannheim-143"
       style="fill:none;stroke:#000000;stroke-width:1;stroke-linecap:square;stroke-linejoin:miter;stroke-miterlimit:4;stroke-opacity:1;stroke-dasharray:3, 3;stroke-dashoffset:0" />

    <path
       d="m 200,197 100,0"
       id="annotators:mannheim-197"
       style="fill:none;stroke:#000000;stroke-width:1;stroke-linecap:square;stroke-linejoin:miter;stroke-miterlimit:4;stroke-opacity:1;stroke-dasharray:3, 3;stroke-dashoffset:0" />

    <path
       d="m 200,263 100,0"
       id="annotators:mannheim-263"
       style="fill:none;stroke:#000000;stroke-width:1;stroke-linecap:square;stroke-linejoin:miter;stroke-miterlimit:4;stroke-opacity:1;stroke-dasharray:3, 3;stroke-dashoffset:0" />

    <path
       d="m 200,293 100,0"
       id="annotators:mannheim-293"
       style="fill:none;stroke:#000000;stroke-width:1;stroke-linecap:square;stroke-linejoin:miter;stroke-miterlimit:4;stroke-opacity:1;stroke-dasharray:3, 3;stroke-dashoffset:0" />

    <path
       d="m 200,300 100,0"
       id="annotators:mannheim-300"
       style="fill:none;stroke:#000000;stroke-width:1;stroke-linecap:square;stroke-linejoin:miter;stroke-miterlimit:4;stroke-opacity:1;stroke-dasharray:3, 3;stroke-dashoffset:0" />

    <path
       d="m 200,312 100,0"
       id="annotators:mannheim-312"
       style="fill:none;stroke:#000000;stroke-width:1;stroke-linecap:square;stroke-linejoin:miter;stroke-miterlimit:4;stroke-opacity:1;stroke-dasharray:3, 3;stroke-dashoffset:0" />

    <path
       d="m 200,380 100,0"
       id="annotators:mannheim-380"
       style="fill:none;stroke:#000000;stroke-width:1;stroke-linecap:square;stroke-linejoin:miter;stroke-miterlimit:4;stroke-opacity:1;stroke-dasharray:3, 3;stroke-dashoffset:0" />

    <path
       d="m 0,24 300,0"
       id="gold-24"
       style="fill:none;stroke:#ff0000;stroke-width:1;stroke-linecap:square;stroke-linejoin:miter;stroke-miterlimit:4;stroke-opacity:0.75;stroke-dasharray:none;stroke-dashoffset:0" />

    <path
       d="m 0,69 300,0"
       id="gold-69"
       style="fill:none;stroke:#ff0000;stroke-width:1;stroke-linecap:square;stroke-linejoin:miter;stroke-miterlimit:4;stroke-opacity:0.75;stroke-dasharray:none;stroke-dashoffset:0" />

    <path
       d="m 0,143 300,0"
       id="gold-143"
       style="fill:none;stroke:#ff0000;stroke-width:1;stroke-linecap:square;stroke-linejoin:miter;stroke-miterlimit:4;stroke-opacity:0.75;stroke-dasharray:none;stroke-dashoffset:0" />

    <path
       d="m 0,195 300,0"
       id="gold-195"
       style="fill:none;stroke:#ff0000;stroke-width:1;stroke-linecap:square;stroke-linejoin:miter;stroke-miterlimit:4;stroke-opacity:0.75;stroke-dasharray:none;stroke-dashoffset:0" />

    <path
       d="m 0,263 300,0"
       id="gold-263"
       style="fill:none;stroke:#ff0000;stroke-width:1;stroke-linecap:square;stroke-linejoin:miter;stroke-miterlimit:4;stroke-opacity:0.75;stroke-dasharray:none;stroke-dashoffset:0" />

    <path
       d="m 0,312 300,0"
       id="gold-312"
       style="fill:none;stroke:#ff0000;stroke-width:1;stroke-linecap:square;stroke-linejoin:miter;stroke-miterlimit:4;stroke-opacity:0.75;stroke-dasharray:none;stroke-dashoffset:0" />

    <path
       d="m 0,380 300,0"
       id="gold-380"
       style="fill:none;stroke:#ff0000;stroke-width:1;stroke-linecap:square;stroke-linejoin:miter;stroke-miterlimit:4;stroke-opacity:0.75;stroke-dasharray:none;stroke-dashoffset:0" />

  <g transform="translate(0,57)">
    <rect width="12" height="8" rx="5" ry="5" x="0" y="-4"
       style="color:#000000;fill:#ffffff;stroke:#000000;stroke-width:0.3;" />
    <text x="3" y="2" style="font-size:6px;font-family:sans-serif">57</text>
  </g>

  <g transform="translate(0,78)">
    <rect width="12" height="8" rx="5" ry="5" x="0" y="-4"
       style="color:#000000;fill:#ffffff;stroke:#000000;stroke-width:0.3;" />
    <text x="3" y="2" style="font-size:6px;font-family:sans-serif">78</text>
  </g>

  <g transform="translate(0,143)">
    <rect width="16" height="8" rx="5" ry="5" x="0" y="-4"
       style="color:#000000;fill:#ffffff;stroke:#000000;stroke-width:0.3;" />
    <text x="3" y="2" style="font-size:6px;font-family:sans-serif">143</text>
  </g>

  <g transform="translate(0,194)">
    <rect width="16" height="8" rx="5" ry="5" x="0" y="-4"
       style="color:#000000;fill:#ffffff;stroke:#000000;stroke-width:0.3;" />
    <text x="3" y="2" style="font-size:6px;font-family:sans-serif">194</text>
  </g>

  <g transform="translate(0,263)">
    <rect width="16" height="8" rx="5" ry="5" x="0" y="-4"
       style="color:#000000;fill:#ffffff;stroke:#000000;stroke-width:0.3;" />
    <text x="3" y="2" style="font-size:6px;font-family:sans-serif">263</text>
  </g>

  <g transform="translate(0,381)">
    <rect width="16" height="8" rx="5" ry="5" x="0" y="-4"
       style="color:#000000;fill:#ffffff;stroke:#000000;stroke-width:0.3;" />
    <text x="3" y="2" style="font-size:6px;font-family:sans-serif">381</text>
  </g>

  <g transform="translate(100,25)">
    <rect width="12" height="8" rx="5" ry="5" x="0" y="-4"
       style="color:#000000;fill:#ffffff;stroke:#000000;stroke-width:0.3;" />
    <text x="3" y="2" style="font-size:6px;font-family:sans-serif">25</text>
  </g>

  <g transform="translate(100,51)">
    <rect width="12" height="8" rx="5" ry="5" x="0" y="-4"
       style="color:#000000;fill:#ffffff;stroke:#000000;stroke-width:0.3;" />
    <text x="3" y="2" style="font-size:6px;font-family:sans-serif">51</text>
  </g>

  <g transform="translate(100,57)">
    <rect width="12" height="8" rx="5" ry="5" x="0" y="-4"
       style="color:#000000;fill:#ffffff;stroke:#000000;stroke-width:0.3;" />
    <text x="3" y="2" style="font-size:6px;font-family:sans-serif">57</text>
  </g>

  <g transform="translate(100,74)">
    <rect width="12" height="8" rx="5" ry="5" x="0" y="-4"
       style="color:#000000;fill:#ffffff;stroke:#000000;stroke-width:0.3;" />
    <text x="3" y="2" style="font-size:6px;font-family:sans-serif">74</text>
  </g>

  <g transform="translate(100,91)">
    <rect width="12" height="8" rx="5" ry="5" x="0" y="-4"
       style="color:#000000;fill:#ffffff;stroke:#000000;stroke-width:0.3;" />
    <text x="3" y="2" style="font-size:6px;font-family:sans-serif">91</text>
  </g>

  <g transform="translate(100,143)">
    <rect width="16" height="8" rx="5" ry="5" x="0" y="-4"
       style="color:#000000;fill:#ffffff;stroke:#000000;stroke-width:0.3;" />
    <text x="3" y="2" style="font-size:6px;font-family:sans-serif">143</text>
  </g>

  <g transform="translate(100,231)">
    <rect width="16" height="8" rx="5" ry="5" x="0" y="-4"
       style="color:#000000;fill:#ffffff;stroke:#000000;stroke-width:0.3;" />
    <text x="3" y="2" style="font-size:6px;font-family:sans-serif">231</text>
  </g>

  <g transform="translate(100,263)">
    <rect width="16" height="8" rx="5" ry="5" x="0" y="-4"
       style="color:#000000;fill:#ffffff;stroke:#000000;stroke-width:0.3;" />
    <text x="3" y="2" style="font-size:6px;font-family:sans-serif">263</text>
  </g>

  <g transform="translate(100,312)">
    <rect width="16" height="8" rx="5" ry="5" x="0" y="-4"
       style="color:#000000;fill:#ffffff;stroke:#000000;stroke-width:0.3;" />
    <text x="3" y="2" style="font-size:6px;font-family:sans-serif">312</text>
  </g>

  <g transform="translate(100,343)">
    <rect width="16" height="8" rx="5" ry="5" x="0" y="-4"
       style="color:#000000;fill:#ffffff;stroke:#000000;stroke-width:0.3;" />
    <text x="3" y="2" style="font-size:6px;font-family:sans-serif">343</text>
  </g>

  <g transform="translate(100,380)">
    <rect width="16" height="8" rx="5" ry="5" x="0" y="-4"
       style="color:#000000;fill:#ffffff;stroke:#000000;stroke-width:0.3;" />
    <text x="3" y="2" style="font-size:6px;font-family:sans-serif">380</text>
  </g>

  <g transform="translate(100,422)">
    <rect width="16" height="8" rx="5" ry="5" x="0" y="-4"
       style="color:#000000;fill:#ffffff;stroke:#000000;stroke-width:0.3;" />
    <text x="3" y="2" style="font-size:6px;font-family:sans-serif">422</text>
  </g>

  <g transform="translate(200,14)">
    <rect width="12" height="8" rx="5" ry="5" x="0" y="-4"
       style="color:#000000;fill:#ffffff;stroke:#000000;stroke-width:0.3;" />
    <text x="3" y="2" style="font-size:6px;font-family:sans-serif">14</text>
  </g>

  <g transform="translate(200,23)">
    <rect width="12" height="8" rx="5" ry="5" x="0" y="-4"
       style="color:#000000;fill:#ffffff;stroke:#000000;stroke-width:0.3;" />
    <text x="3" y="2" style="font-size:6px;font-family:sans-serif">23</text>
  </g>

  <g transform="translate(200,57)">
    <rect width="12" height="8" rx="5" ry="5" x="0" y="-4"
       style="color:#000000;fill:#ffffff;stroke:#000000;stroke-width:0.3;" />
    <text x="3" y="2" style="font-size:6px;font-family:sans-serif">57</text>
  </g>

  <g transform="translate(200,74)">
    <rect width="12" height="8" rx="5" ry="5" x="0" y="-4"
       style="color:#000000;fill:#ffffff;stroke:#000000;stroke-width:0.3;" />
    <text x="3" y="2" style="font-size:6px;font-family:sans-serif">74</text>
  </g>

  <g transform="translate(200,78)">
    <rect width="12" height="8" rx="5" ry="5" x="0" y="-4"
       style="color:#000000;fill:#ffffff;stroke:#000000;stroke-width:0.3;" />
    <text x="3" y="2" style="font-size:6px;font-family:sans-serif">78</text>
  </g>

  <g transform="translate(200,104)">
    <rect width="16" height="8" rx="5" ry="5" x="0" y="-4"
       style="color:#000000;fill:#ffffff;stroke:#000000;stroke-width:0.3;" />
    <text x="3" y="2" style="font-size:6px;font-family:sans-serif">104</text>
  </g>

  <g transform="translate(200,143)">
    <rect width="16" height="8" rx="5" ry="5" x="0" y="-4"
       style="color:#000000;fill:#ffffff;stroke:#000000;stroke-width:0.3;" />
    <text x="3" y="2" style="font-size:6px;font-family:sans-serif">143</text>
  </g>

  <g transform="translate(200,197)">
    <rect width="16" height="8" rx="5" ry="5" x="0" y="-4"
       style="color:#000000;fill:#ffffff;stroke:#000000;stroke-width:0.3;" />
    <text x="3" y="2" style="font-size:6px;font-family:sans-serif">197</text>
  </g>

  <g transform="translate(200,263)">
    <rect width="16" height="8" rx="5" ry="5" x="0" y="-4"
       style="color:#000000;fill:#ffffff;stroke:#000000;stroke-width:0.3;" />
    <text x="3" y="2" style="font-size:6px;font-family:sans-serif">263</text>
  </g>

  <g transform="translate(200,293)">
    <rect width="16" height="8" rx="5" ry="5" x="0" y="-4"
       style="color:#000000;fill:#ffffff;stroke:#000000;stroke-width:0.3;" />
    <text x="3" y="2" style="font-size:6px;font-family:sans-serif">293</text>
  </g>

  <g transform="translate(200,300)">
    <rect width="16" height="8" rx="5" ry="5" x="0" y="-4"
       style="color:#000000;fill:#ffffff;stroke:#000000;stroke-width:0.3;" />
    <text x="3" y="2" style="font-size:6px;font-family:sans-serif">300</text>
  </g>

  <g transform="translate(200,312)">
    <rect width="16" height="8" rx="5" ry="5" x="0" y="-4"
       style="color:#000000;fill:#ffffff;stroke:#000000;stroke-width:0.3;" />
    <text x="3" y="2" style="font-size:6px;font-family:sans-serif">312</text>
  </g>

  <g transform="translate(200,380)">
    <rect width="16" height="8" rx="5" ry="5" x="0" y="-4"
       style="color:#000000;fill:#ffffff;stroke:#000000;stroke-width:0.3;" />
    <text x="3" y="2" style="font-size:6px;font-family:sans-serif">380</text>
  </g>

  </g>
</svg>
