<?xml version="1.0" encoding="UTF-8" standalone="no"?>
<svg xmlns:dc="http://purl.org/dc/elements/1.1/" xmlns:cc="http://creativecommons.org/ns#" xmlns:rdf="http://www.w3.org/1999/02/22-rdf-syntax-ns#" xmlns:svg="http://www.w3.org/2000/svg" xmlns="http://www.w3.org/2000/svg" version="1.1" width="300" height="782" id="svg2">
  <g id="layer1">

    <path
       d="m 0,39 100,0"
       id="annotators:brennan-39"
       style="fill:none;stroke:#000000;stroke-width:1;stroke-linecap:square;stroke-linejoin:miter;stroke-miterlimit:4;stroke-opacity:1;stroke-dasharray:3, 3;stroke-dashoffset:0" />

    <path
       d="m 0,100 100,0"
       id="annotators:brennan-100"
       style="fill:none;stroke:#000000;stroke-width:1;stroke-linecap:square;stroke-linejoin:miter;stroke-miterlimit:4;stroke-opacity:1;stroke-dasharray:3, 3;stroke-dashoffset:0" />

    <path
       d="m 0,161 100,0"
       id="annotators:brennan-161"
       style="fill:none;stroke:#000000;stroke-width:1;stroke-linecap:square;stroke-linejoin:miter;stroke-miterlimit:4;stroke-opacity:1;stroke-dasharray:3, 3;stroke-dashoffset:0" />

    <path
       d="m 0,232 100,0"
       id="annotators:brennan-232"
       style="fill:none;stroke:#000000;stroke-width:1;stroke-linecap:square;stroke-linejoin:miter;stroke-miterlimit:4;stroke-opacity:1;stroke-dasharray:3, 3;stroke-dashoffset:0" />

    <path
       d="m 0,276 100,0"
       id="annotators:brennan-276"
       style="fill:none;stroke:#000000;stroke-width:1;stroke-linecap:square;stroke-linejoin:miter;stroke-miterlimit:4;stroke-opacity:1;stroke-dasharray:3, 3;stroke-dashoffset:0" />

    <path
       d="m 0,316 100,0"
       id="annotators:brennan-316"
       style="fill:none;stroke:#000000;stroke-width:1;stroke-linecap:square;stroke-linejoin:miter;stroke-miterlimit:4;stroke-opacity:1;stroke-dasharray:3, 3;stroke-dashoffset:0" />

    <path
       d="m 0,468 100,0"
       id="annotators:brennan-468"
       style="fill:none;stroke:#000000;stroke-width:1;stroke-linecap:square;stroke-linejoin:miter;stroke-miterlimit:4;stroke-opacity:1;stroke-dasharray:3, 3;stroke-dashoffset:0" />

    <path
       d="m 0,522 100,0"
       id="annotators:brennan-522"
       style="fill:none;stroke:#000000;stroke-width:1;stroke-linecap:square;stroke-linejoin:miter;stroke-miterlimit:4;stroke-opacity:1;stroke-dasharray:3, 3;stroke-dashoffset:0" />

    <path
       d="m 0,590 100,0"
       id="annotators:brennan-590"
       style="fill:none;stroke:#000000;stroke-width:1;stroke-linecap:square;stroke-linejoin:miter;stroke-miterlimit:4;stroke-opacity:1;stroke-dasharray:3, 3;stroke-dashoffset:0" />

    <path
       d="m 0,706 100,0"
       id="annotators:brennan-706"
       style="fill:none;stroke:#000000;stroke-width:1;stroke-linecap:square;stroke-linejoin:miter;stroke-miterlimit:4;stroke-opacity:1;stroke-dasharray:3, 3;stroke-dashoffset:0" />

    <path
       d="m 100,17 100,0"
       id="annotators:docsouth-17"
       style="fill:none;stroke:#000000;stroke-width:1;stroke-linecap:square;stroke-linejoin:miter;stroke-miterlimit:4;stroke-opacity:1;stroke-dasharray:3, 3;stroke-dashoffset:0" />

    <path
       d="m 100,46 100,0"
       id="annotators:docsouth-46"
       style="fill:none;stroke:#000000;stroke-width:1;stroke-linecap:square;stroke-linejoin:miter;stroke-miterlimit:4;stroke-opacity:1;stroke-dasharray:3, 3;stroke-dashoffset:0" />

    <path
       d="m 100,117 100,0"
       id="annotators:docsouth-117"
       style="fill:none;stroke:#000000;stroke-width:1;stroke-linecap:square;stroke-linejoin:miter;stroke-miterlimit:4;stroke-opacity:1;stroke-dasharray:3, 3;stroke-dashoffset:0" />

    <path
       d="m 100,169 100,0"
       id="annotators:docsouth-169"
       style="fill:none;stroke:#000000;stroke-width:1;stroke-linecap:square;stroke-linejoin:miter;stroke-miterlimit:4;stroke-opacity:1;stroke-dasharray:3, 3;stroke-dashoffset:0" />

    <path
       d="m 100,198 100,0"
       id="annotators:docsouth-198"
       style="fill:none;stroke:#000000;stroke-width:1;stroke-linecap:square;stroke-linejoin:miter;stroke-miterlimit:4;stroke-opacity:1;stroke-dasharray:3, 3;stroke-dashoffset:0" />

    <path
       d="m 100,231 100,0"
       id="annotators:docsouth-231"
       style="fill:none;stroke:#000000;stroke-width:1;stroke-linecap:square;stroke-linejoin:miter;stroke-miterlimit:4;stroke-opacity:1;stroke-dasharray:3, 3;stroke-dashoffset:0" />

    <path
       d="m 100,275 100,0"
       id="annotators:docsouth-275"
       style="fill:none;stroke:#000000;stroke-width:1;stroke-linecap:square;stroke-linejoin:miter;stroke-miterlimit:4;stroke-opacity:1;stroke-dasharray:3, 3;stroke-dashoffset:0" />

    <path
       d="m 100,310 100,0"
       id="annotators:docsouth-310"
       style="fill:none;stroke:#000000;stroke-width:1;stroke-linecap:square;stroke-linejoin:miter;stroke-miterlimit:4;stroke-opacity:1;stroke-dasharray:3, 3;stroke-dashoffset:0" />

    <path
       d="m 100,381 100,0"
       id="annotators:docsouth-381"
       style="fill:none;stroke:#000000;stroke-width:1;stroke-linecap:square;stroke-linejoin:miter;stroke-miterlimit:4;stroke-opacity:1;stroke-dasharray:3, 3;stroke-dashoffset:0" />

    <path
       d="m 100,405 100,0"
       id="annotators:docsouth-405"
       style="fill:none;stroke:#000000;stroke-width:1;stroke-linecap:square;stroke-linejoin:miter;stroke-miterlimit:4;stroke-opacity:1;stroke-dasharray:3, 3;stroke-dashoffset:0" />

    <path
       d="m 100,413 100,0"
       id="annotators:docsouth-413"
       style="fill:none;stroke:#000000;stroke-width:1;stroke-linecap:square;stroke-linejoin:miter;stroke-miterlimit:4;stroke-opacity:1;stroke-dasharray:3, 3;stroke-dashoffset:0" />

    <path
       d="m 100,438 100,0"
       id="annotators:docsouth-438"
       style="fill:none;stroke:#000000;stroke-width:1;stroke-linecap:square;stroke-linejoin:miter;stroke-miterlimit:4;stroke-opacity:1;stroke-dasharray:3, 3;stroke-dashoffset:0" />

    <path
       d="m 100,445 100,0"
       id="annotators:docsouth-445"
       style="fill:none;stroke:#000000;stroke-width:1;stroke-linecap:square;stroke-linejoin:miter;stroke-miterlimit:4;stroke-opacity:1;stroke-dasharray:3, 3;stroke-dashoffset:0" />

    <path
       d="m 100,461 100,0"
       id="annotators:docsouth-461"
       style="fill:none;stroke:#000000;stroke-width:1;stroke-linecap:square;stroke-linejoin:miter;stroke-miterlimit:4;stroke-opacity:1;stroke-dasharray:3, 3;stroke-dashoffset:0" />

    <path
       d="m 100,501 100,0"
       id="annotators:docsouth-501"
       style="fill:none;stroke:#000000;stroke-width:1;stroke-linecap:square;stroke-linejoin:miter;stroke-miterlimit:4;stroke-opacity:1;stroke-dasharray:3, 3;stroke-dashoffset:0" />

    <path
       d="m 100,522 100,0"
       id="annotators:docsouth-522"
       style="fill:none;stroke:#000000;stroke-width:1;stroke-linecap:square;stroke-linejoin:miter;stroke-miterlimit:4;stroke-opacity:1;stroke-dasharray:3, 3;stroke-dashoffset:0" />

    <path
       d="m 100,601 100,0"
       id="annotators:docsouth-601"
       style="fill:none;stroke:#000000;stroke-width:1;stroke-linecap:square;stroke-linejoin:miter;stroke-miterlimit:4;stroke-opacity:1;stroke-dasharray:3, 3;stroke-dashoffset:0" />

    <path
       d="m 100,648 100,0"
       id="annotators:docsouth-648"
       style="fill:none;stroke:#000000;stroke-width:1;stroke-linecap:square;stroke-linejoin:miter;stroke-miterlimit:4;stroke-opacity:1;stroke-dasharray:3, 3;stroke-dashoffset:0" />

    <path
       d="m 100,677 100,0"
       id="annotators:docsouth-677"
       style="fill:none;stroke:#000000;stroke-width:1;stroke-linecap:square;stroke-linejoin:miter;stroke-miterlimit:4;stroke-opacity:1;stroke-dasharray:3, 3;stroke-dashoffset:0" />

    <path
       d="m 100,706 100,0"
       id="annotators:docsouth-706"
       style="fill:none;stroke:#000000;stroke-width:1;stroke-linecap:square;stroke-linejoin:miter;stroke-miterlimit:4;stroke-opacity:1;stroke-dasharray:3, 3;stroke-dashoffset:0" />

    <path
       d="m 100,734 100,0"
       id="annotators:docsouth-734"
       style="fill:none;stroke:#000000;stroke-width:1;stroke-linecap:square;stroke-linejoin:miter;stroke-miterlimit:4;stroke-opacity:1;stroke-dasharray:3, 3;stroke-dashoffset:0" />

    <path
       d="m 100,747 100,0"
       id="annotators:docsouth-747"
       style="fill:none;stroke:#000000;stroke-width:1;stroke-linecap:square;stroke-linejoin:miter;stroke-miterlimit:4;stroke-opacity:1;stroke-dasharray:3, 3;stroke-dashoffset:0" />

    <path
       d="m 100,772 100,0"
       id="annotators:docsouth-772"
       style="fill:none;stroke:#000000;stroke-width:1;stroke-linecap:square;stroke-linejoin:miter;stroke-miterlimit:4;stroke-opacity:1;stroke-dasharray:3, 3;stroke-dashoffset:0" />

    <path
       d="m 200,16 100,0"
       id="annotators:mannheim-16"
       style="fill:none;stroke:#000000;stroke-width:1;stroke-linecap:square;stroke-linejoin:miter;stroke-miterlimit:4;stroke-opacity:1;stroke-dasharray:3, 3;stroke-dashoffset:0" />

    <path
       d="m 200,46 100,0"
       id="annotators:mannheim-46"
       style="fill:none;stroke:#000000;stroke-width:1;stroke-linecap:square;stroke-linejoin:miter;stroke-miterlimit:4;stroke-opacity:1;stroke-dasharray:3, 3;stroke-dashoffset:0" />

    <path
       d="m 200,64 100,0"
       id="annotators:mannheim-64"
       style="fill:none;stroke:#000000;stroke-width:1;stroke-linecap:square;stroke-linejoin:miter;stroke-miterlimit:4;stroke-opacity:1;stroke-dasharray:3, 3;stroke-dashoffset:0" />

    <path
       d="m 200,79 100,0"
       id="annotators:mannheim-79"
       style="fill:none;stroke:#000000;stroke-width:1;stroke-linecap:square;stroke-linejoin:miter;stroke-miterlimit:4;stroke-opacity:1;stroke-dasharray:3, 3;stroke-dashoffset:0" />

    <path
       d="m 200,117 100,0"
       id="annotators:mannheim-117"
       style="fill:none;stroke:#000000;stroke-width:1;stroke-linecap:square;stroke-linejoin:miter;stroke-miterlimit:4;stroke-opacity:1;stroke-dasharray:3, 3;stroke-dashoffset:0" />

    <path
       d="m 200,169 100,0"
       id="annotators:mannheim-169"
       style="fill:none;stroke:#000000;stroke-width:1;stroke-linecap:square;stroke-linejoin:miter;stroke-miterlimit:4;stroke-opacity:1;stroke-dasharray:3, 3;stroke-dashoffset:0" />

    <path
       d="m 200,180 100,0"
       id="annotators:mannheim-180"
       style="fill:none;stroke:#000000;stroke-width:1;stroke-linecap:square;stroke-linejoin:miter;stroke-miterlimit:4;stroke-opacity:1;stroke-dasharray:3, 3;stroke-dashoffset:0" />

    <path
       d="m 200,201 100,0"
       id="annotators:mannheim-201"
       style="fill:none;stroke:#000000;stroke-width:1;stroke-linecap:square;stroke-linejoin:miter;stroke-miterlimit:4;stroke-opacity:1;stroke-dasharray:3, 3;stroke-dashoffset:0" />

    <path
       d="m 200,232 100,0"
       id="annotators:mannheim-232"
       style="fill:none;stroke:#000000;stroke-width:1;stroke-linecap:square;stroke-linejoin:miter;stroke-miterlimit:4;stroke-opacity:1;stroke-dasharray:3, 3;stroke-dashoffset:0" />

    <path
       d="m 200,276 100,0"
       id="annotators:mannheim-276"
       style="fill:none;stroke:#000000;stroke-width:1;stroke-linecap:square;stroke-linejoin:miter;stroke-miterlimit:4;stroke-opacity:1;stroke-dasharray:3, 3;stroke-dashoffset:0" />

    <path
       d="m 200,316 100,0"
       id="annotators:mannheim-316"
       style="fill:none;stroke:#000000;stroke-width:1;stroke-linecap:square;stroke-linejoin:miter;stroke-miterlimit:4;stroke-opacity:1;stroke-dasharray:3, 3;stroke-dashoffset:0" />

    <path
       d="m 200,342 100,0"
       id="annotators:mannheim-342"
       style="fill:none;stroke:#000000;stroke-width:1;stroke-linecap:square;stroke-linejoin:miter;stroke-miterlimit:4;stroke-opacity:1;stroke-dasharray:3, 3;stroke-dashoffset:0" />

    <path
       d="m 200,391 100,0"
       id="annotators:mannheim-391"
       style="fill:none;stroke:#000000;stroke-width:1;stroke-linecap:square;stroke-linejoin:miter;stroke-miterlimit:4;stroke-opacity:1;stroke-dasharray:3, 3;stroke-dashoffset:0" />

    <path
       d="m 200,445 100,0"
       id="annotators:mannheim-445"
       style="fill:none;stroke:#000000;stroke-width:1;stroke-linecap:square;stroke-linejoin:miter;stroke-miterlimit:4;stroke-opacity:1;stroke-dasharray:3, 3;stroke-dashoffset:0" />

    <path
       d="m 200,469 100,0"
       id="annotators:mannheim-469"
       style="fill:none;stroke:#000000;stroke-width:1;stroke-linecap:square;stroke-linejoin:miter;stroke-miterlimit:4;stroke-opacity:1;stroke-dasharray:3, 3;stroke-dashoffset:0" />

    <path
       d="m 200,522 100,0"
       id="annotators:mannheim-522"
       style="fill:none;stroke:#000000;stroke-width:1;stroke-linecap:square;stroke-linejoin:miter;stroke-miterlimit:4;stroke-opacity:1;stroke-dasharray:3, 3;stroke-dashoffset:0" />

    <path
       d="m 200,572 100,0"
       id="annotators:mannheim-572"
       style="fill:none;stroke:#000000;stroke-width:1;stroke-linecap:square;stroke-linejoin:miter;stroke-miterlimit:4;stroke-opacity:1;stroke-dasharray:3, 3;stroke-dashoffset:0" />

    <path
       d="m 200,648 100,0"
       id="annotators:mannheim-648"
       style="fill:none;stroke:#000000;stroke-width:1;stroke-linecap:square;stroke-linejoin:miter;stroke-miterlimit:4;stroke-opacity:1;stroke-dasharray:3, 3;stroke-dashoffset:0" />

    <path
       d="m 200,702 100,0"
       id="annotators:mannheim-702"
       style="fill:none;stroke:#000000;stroke-width:1;stroke-linecap:square;stroke-linejoin:miter;stroke-miterlimit:4;stroke-opacity:1;stroke-dasharray:3, 3;stroke-dashoffset:0" />

    <path
       d="m 200,706 100,0"
       id="annotators:mannheim-706"
       style="fill:none;stroke:#000000;stroke-width:1;stroke-linecap:square;stroke-linejoin:miter;stroke-miterlimit:4;stroke-opacity:1;stroke-dasharray:3, 3;stroke-dashoffset:0" />

    <path
       d="m 200,776 100,0"
       id="annotators:mannheim-776"
       style="fill:none;stroke:#000000;stroke-width:1;stroke-linecap:square;stroke-linejoin:miter;stroke-miterlimit:4;stroke-opacity:1;stroke-dasharray:3, 3;stroke-dashoffset:0" />

    <path
       d="m 0,46 300,0"
       id="gold-46"
       style="fill:none;stroke:#ff0000;stroke-width:1;stroke-linecap:square;stroke-linejoin:miter;stroke-miterlimit:4;stroke-opacity:0.75;stroke-dasharray:none;stroke-dashoffset:0" />

    <path
       d="m 0,117 300,0"
       id="gold-117"
       style="fill:none;stroke:#ff0000;stroke-width:1;stroke-linecap:square;stroke-linejoin:miter;stroke-miterlimit:4;stroke-opacity:0.75;stroke-dasharray:none;stroke-dashoffset:0" />

    <path
       d="m 0,169 300,0"
       id="gold-169"
       style="fill:none;stroke:#ff0000;stroke-width:1;stroke-linecap:square;stroke-linejoin:miter;stroke-miterlimit:4;stroke-opacity:0.75;stroke-dasharray:none;stroke-dashoffset:0" />

    <path
       d="m 0,232 300,0"
       id="gold-232"
       style="fill:none;stroke:#ff0000;stroke-width:1;stroke-linecap:square;stroke-linejoin:miter;stroke-miterlimit:4;stroke-opacity:0.75;stroke-dasharray:none;stroke-dashoffset:0" />

    <path
       d="m 0,276 300,0"
       id="gold-276"
       style="fill:none;stroke:#ff0000;stroke-width:1;stroke-linecap:square;stroke-linejoin:miter;stroke-miterlimit:4;stroke-opacity:0.75;stroke-dasharray:none;stroke-dashoffset:0" />

    <path
       d="m 0,316 300,0"
       id="gold-316"
       style="fill:none;stroke:#ff0000;stroke-width:1;stroke-linecap:square;stroke-linejoin:miter;stroke-miterlimit:4;stroke-opacity:0.75;stroke-dasharray:none;stroke-dashoffset:0" />

    <path
       d="m 0,445 300,0"
       id="gold-445"
       style="fill:none;stroke:#ff0000;stroke-width:1;stroke-linecap:square;stroke-linejoin:miter;stroke-miterlimit:4;stroke-opacity:0.75;stroke-dasharray:none;stroke-dashoffset:0" />

    <path
       d="m 0,522 300,0"
       id="gold-522"
       style="fill:none;stroke:#ff0000;stroke-width:1;stroke-linecap:square;stroke-linejoin:miter;stroke-miterlimit:4;stroke-opacity:0.75;stroke-dasharray:none;stroke-dashoffset:0" />

    <path
       d="m 0,648 300,0"
       id="gold-648"
       style="fill:none;stroke:#ff0000;stroke-width:1;stroke-linecap:square;stroke-linejoin:miter;stroke-miterlimit:4;stroke-opacity:0.75;stroke-dasharray:none;stroke-dashoffset:0" />

    <path
       d="m 0,706 300,0"
       id="gold-706"
       style="fill:none;stroke:#ff0000;stroke-width:1;stroke-linecap:square;stroke-linejoin:miter;stroke-miterlimit:4;stroke-opacity:0.75;stroke-dasharray:none;stroke-dashoffset:0" />

  <g transform="translate(0,39)">
    <rect width="12" height="8" rx="5" ry="5" x="0" y="-4"
       style="color:#000000;fill:#ffffff;stroke:#000000;stroke-width:0.3;" />
    <text x="3" y="2" style="font-size:6px;font-family:sans-serif">39</text>
  </g>

  <g transform="translate(0,100)">
    <rect width="16" height="8" rx="5" ry="5" x="0" y="-4"
       style="color:#000000;fill:#ffffff;stroke:#000000;stroke-width:0.3;" />
    <text x="3" y="2" style="font-size:6px;font-family:sans-serif">100</text>
  </g>

  <g transform="translate(0,161)">
    <rect width="16" height="8" rx="5" ry="5" x="0" y="-4"
       style="color:#000000;fill:#ffffff;stroke:#000000;stroke-width:0.3;" />
    <text x="3" y="2" style="font-size:6px;font-family:sans-serif">161</text>
  </g>

  <g transform="translate(0,232)">
    <rect width="16" height="8" rx="5" ry="5" x="0" y="-4"
       style="color:#000000;fill:#ffffff;stroke:#000000;stroke-width:0.3;" />
    <text x="3" y="2" style="font-size:6px;font-family:sans-serif">232</text>
  </g>

  <g transform="translate(0,276)">
    <rect width="16" height="8" rx="5" ry="5" x="0" y="-4"
       style="color:#000000;fill:#ffffff;stroke:#000000;stroke-width:0.3;" />
    <text x="3" y="2" style="font-size:6px;font-family:sans-serif">276</text>
  </g>

  <g transform="translate(0,316)">
    <rect width="16" height="8" rx="5" ry="5" x="0" y="-4"
       style="color:#000000;fill:#ffffff;stroke:#000000;stroke-width:0.3;" />
    <text x="3" y="2" style="font-size:6px;font-family:sans-serif">316</text>
  </g>

  <g transform="translate(0,468)">
    <rect width="16" height="8" rx="5" ry="5" x="0" y="-4"
       style="color:#000000;fill:#ffffff;stroke:#000000;stroke-width:0.3;" />
    <text x="3" y="2" style="font-size:6px;font-family:sans-serif">468</text>
  </g>

  <g transform="translate(0,522)">
    <rect width="16" height="8" rx="5" ry="5" x="0" y="-4"
       style="color:#000000;fill:#ffffff;stroke:#000000;stroke-width:0.3;" />
    <text x="3" y="2" style="font-size:6px;font-family:sans-serif">522</text>
  </g>

  <g transform="translate(0,590)">
    <rect width="16" height="8" rx="5" ry="5" x="0" y="-4"
       style="color:#000000;fill:#ffffff;stroke:#000000;stroke-width:0.3;" />
    <text x="3" y="2" style="font-size:6px;font-family:sans-serif">590</text>
  </g>

  <g transform="translate(0,706)">
    <rect width="16" height="8" rx="5" ry="5" x="0" y="-4"
       style="color:#000000;fill:#ffffff;stroke:#000000;stroke-width:0.3;" />
    <text x="3" y="2" style="font-size:6px;font-family:sans-serif">706</text>
  </g>

  <g transform="translate(100,17)">
    <rect width="12" height="8" rx="5" ry="5" x="0" y="-4"
       style="color:#000000;fill:#ffffff;stroke:#000000;stroke-width:0.3;" />
    <text x="3" y="2" style="font-size:6px;font-family:sans-serif">17</text>
  </g>

  <g transform="translate(100,46)">
    <rect width="12" height="8" rx="5" ry="5" x="0" y="-4"
       style="color:#000000;fill:#ffffff;stroke:#000000;stroke-width:0.3;" />
    <text x="3" y="2" style="font-size:6px;font-family:sans-serif">46</text>
  </g>

  <g transform="translate(100,117)">
    <rect width="16" height="8" rx="5" ry="5" x="0" y="-4"
       style="color:#000000;fill:#ffffff;stroke:#000000;stroke-width:0.3;" />
    <text x="3" y="2" style="font-size:6px;font-family:sans-serif">117</text>
  </g>

  <g transform="translate(100,169)">
    <rect width="16" height="8" rx="5" ry="5" x="0" y="-4"
       style="color:#000000;fill:#ffffff;stroke:#000000;stroke-width:0.3;" />
    <text x="3" y="2" style="font-size:6px;font-family:sans-serif">169</text>
  </g>

  <g transform="translate(100,198)">
    <rect width="16" height="8" rx="5" ry="5" x="0" y="-4"
       style="color:#000000;fill:#ffffff;stroke:#000000;stroke-width:0.3;" />
    <text x="3" y="2" style="font-size:6px;font-family:sans-serif">198</text>
  </g>

  <g transform="translate(100,231)">
    <rect width="16" height="8" rx="5" ry="5" x="0" y="-4"
       style="color:#000000;fill:#ffffff;stroke:#000000;stroke-width:0.3;" />
    <text x="3" y="2" style="font-size:6px;font-family:sans-serif">231</text>
  </g>

  <g transform="translate(100,275)">
    <rect width="16" height="8" rx="5" ry="5" x="0" y="-4"
       style="color:#000000;fill:#ffffff;stroke:#000000;stroke-width:0.3;" />
    <text x="3" y="2" style="font-size:6px;font-family:sans-serif">275</text>
  </g>

  <g transform="translate(100,310)">
    <rect width="16" height="8" rx="5" ry="5" x="0" y="-4"
       style="color:#000000;fill:#ffffff;stroke:#000000;stroke-width:0.3;" />
    <text x="3" y="2" style="font-size:6px;font-family:sans-serif">310</text>
  </g>

  <g transform="translate(100,381)">
    <rect width="16" height="8" rx="5" ry="5" x="0" y="-4"
       style="color:#000000;fill:#ffffff;stroke:#000000;stroke-width:0.3;" />
    <text x="3" y="2" style="font-size:6px;font-family:sans-serif">381</text>
  </g>

  <g transform="translate(100,405)">
    <rect width="16" height="8" rx="5" ry="5" x="0" y="-4"
       style="color:#000000;fill:#ffffff;stroke:#000000;stroke-width:0.3;" />
    <text x="3" y="2" style="font-size:6px;font-family:sans-serif">405</text>
  </g>

  <g transform="translate(100,413)">
    <rect width="16" height="8" rx="5" ry="5" x="0" y="-4"
       style="color:#000000;fill:#ffffff;stroke:#000000;stroke-width:0.3;" />
    <text x="3" y="2" style="font-size:6px;font-family:sans-serif">413</text>
  </g>

  <g transform="translate(100,438)">
    <rect width="16" height="8" rx="5" ry="5" x="0" y="-4"
       style="color:#000000;fill:#ffffff;stroke:#000000;stroke-width:0.3;" />
    <text x="3" y="2" style="font-size:6px;font-family:sans-serif">438</text>
  </g>

  <g transform="translate(100,445)">
    <rect width="16" height="8" rx="5" ry="5" x="0" y="-4"
       style="color:#000000;fill:#ffffff;stroke:#000000;stroke-width:0.3;" />
    <text x="3" y="2" style="font-size:6px;font-family:sans-serif">445</text>
  </g>

  <g transform="translate(100,461)">
    <rect width="16" height="8" rx="5" ry="5" x="0" y="-4"
       style="color:#000000;fill:#ffffff;stroke:#000000;stroke-width:0.3;" />
    <text x="3" y="2" style="font-size:6px;font-family:sans-serif">461</text>
  </g>

  <g transform="translate(100,501)">
    <rect width="16" height="8" rx="5" ry="5" x="0" y="-4"
       style="color:#000000;fill:#ffffff;stroke:#000000;stroke-width:0.3;" />
    <text x="3" y="2" style="font-size:6px;font-family:sans-serif">501</text>
  </g>

  <g transform="translate(100,522)">
    <rect width="16" height="8" rx="5" ry="5" x="0" y="-4"
       style="color:#000000;fill:#ffffff;stroke:#000000;stroke-width:0.3;" />
    <text x="3" y="2" style="font-size:6px;font-family:sans-serif">522</text>
  </g>

  <g transform="translate(100,601)">
    <rect width="16" height="8" rx="5" ry="5" x="0" y="-4"
       style="color:#000000;fill:#ffffff;stroke:#000000;stroke-width:0.3;" />
    <text x="3" y="2" style="font-size:6px;font-family:sans-serif">601</text>
  </g>

  <g transform="translate(100,648)">
    <rect width="16" height="8" rx="5" ry="5" x="0" y="-4"
       style="color:#000000;fill:#ffffff;stroke:#000000;stroke-width:0.3;" />
    <text x="3" y="2" style="font-size:6px;font-family:sans-serif">648</text>
  </g>

  <g transform="translate(100,677)">
    <rect width="16" height="8" rx="5" ry="5" x="0" y="-4"
       style="color:#000000;fill:#ffffff;stroke:#000000;stroke-width:0.3;" />
    <text x="3" y="2" style="font-size:6px;font-family:sans-serif">677</text>
  </g>

  <g transform="translate(100,706)">
    <rect width="16" height="8" rx="5" ry="5" x="0" y="-4"
       style="color:#000000;fill:#ffffff;stroke:#000000;stroke-width:0.3;" />
    <text x="3" y="2" style="font-size:6px;font-family:sans-serif">706</text>
  </g>

  <g transform="translate(100,734)">
    <rect width="16" height="8" rx="5" ry="5" x="0" y="-4"
       style="color:#000000;fill:#ffffff;stroke:#000000;stroke-width:0.3;" />
    <text x="3" y="2" style="font-size:6px;font-family:sans-serif">734</text>
  </g>

  <g transform="translate(100,747)">
    <rect width="16" height="8" rx="5" ry="5" x="0" y="-4"
       style="color:#000000;fill:#ffffff;stroke:#000000;stroke-width:0.3;" />
    <text x="3" y="2" style="font-size:6px;font-family:sans-serif">747</text>
  </g>

  <g transform="translate(100,772)">
    <rect width="16" height="8" rx="5" ry="5" x="0" y="-4"
       style="color:#000000;fill:#ffffff;stroke:#000000;stroke-width:0.3;" />
    <text x="3" y="2" style="font-size:6px;font-family:sans-serif">772</text>
  </g>

  <g transform="translate(200,16)">
    <rect width="12" height="8" rx="5" ry="5" x="0" y="-4"
       style="color:#000000;fill:#ffffff;stroke:#000000;stroke-width:0.3;" />
    <text x="3" y="2" style="font-size:6px;font-family:sans-serif">16</text>
  </g>

  <g transform="translate(200,46)">
    <rect width="12" height="8" rx="5" ry="5" x="0" y="-4"
       style="color:#000000;fill:#ffffff;stroke:#000000;stroke-width:0.3;" />
    <text x="3" y="2" style="font-size:6px;font-family:sans-serif">46</text>
  </g>

  <g transform="translate(200,64)">
    <rect width="12" height="8" rx="5" ry="5" x="0" y="-4"
       style="color:#000000;fill:#ffffff;stroke:#000000;stroke-width:0.3;" />
    <text x="3" y="2" style="font-size:6px;font-family:sans-serif">64</text>
  </g>

  <g transform="translate(200,79)">
    <rect width="12" height="8" rx="5" ry="5" x="0" y="-4"
       style="color:#000000;fill:#ffffff;stroke:#000000;stroke-width:0.3;" />
    <text x="3" y="2" style="font-size:6px;font-family:sans-serif">79</text>
  </g>

  <g transform="translate(200,117)">
    <rect width="16" height="8" rx="5" ry="5" x="0" y="-4"
       style="color:#000000;fill:#ffffff;stroke:#000000;stroke-width:0.3;" />
    <text x="3" y="2" style="font-size:6px;font-family:sans-serif">117</text>
  </g>

  <g transform="translate(200,169)">
    <rect width="16" height="8" rx="5" ry="5" x="0" y="-4"
       style="color:#000000;fill:#ffffff;stroke:#000000;stroke-width:0.3;" />
    <text x="3" y="2" style="font-size:6px;font-family:sans-serif">169</text>
  </g>

  <g transform="translate(200,180)">
    <rect width="16" height="8" rx="5" ry="5" x="0" y="-4"
       style="color:#000000;fill:#ffffff;stroke:#000000;stroke-width:0.3;" />
    <text x="3" y="2" style="font-size:6px;font-family:sans-serif">180</text>
  </g>

  <g transform="translate(200,201)">
    <rect width="16" height="8" rx="5" ry="5" x="0" y="-4"
       style="color:#000000;fill:#ffffff;stroke:#000000;stroke-width:0.3;" />
    <text x="3" y="2" style="font-size:6px;font-family:sans-serif">201</text>
  </g>

  <g transform="translate(200,232)">
    <rect width="16" height="8" rx="5" ry="5" x="0" y="-4"
       style="color:#000000;fill:#ffffff;stroke:#000000;stroke-width:0.3;" />
    <text x="3" y="2" style="font-size:6px;font-family:sans-serif">232</text>
  </g>

  <g transform="translate(200,276)">
    <rect width="16" height="8" rx="5" ry="5" x="0" y="-4"
       style="color:#000000;fill:#ffffff;stroke:#000000;stroke-width:0.3;" />
    <text x="3" y="2" style="font-size:6px;font-family:sans-serif">276</text>
  </g>

  <g transform="translate(200,316)">
    <rect width="16" height="8" rx="5" ry="5" x="0" y="-4"
       style="color:#000000;fill:#ffffff;stroke:#000000;stroke-width:0.3;" />
    <text x="3" y="2" style="font-size:6px;font-family:sans-serif">316</text>
  </g>

  <g transform="translate(200,342)">
    <rect width="16" height="8" rx="5" ry="5" x="0" y="-4"
       style="color:#000000;fill:#ffffff;stroke:#000000;stroke-width:0.3;" />
    <text x="3" y="2" style="font-size:6px;font-family:sans-serif">342</text>
  </g>

  <g transform="translate(200,391)">
    <rect width="16" height="8" rx="5" ry="5" x="0" y="-4"
       style="color:#000000;fill:#ffffff;stroke:#000000;stroke-width:0.3;" />
    <text x="3" y="2" style="font-size:6px;font-family:sans-serif">391</text>
  </g>

  <g transform="translate(200,445)">
    <rect width="16" height="8" rx="5" ry="5" x="0" y="-4"
       style="color:#000000;fill:#ffffff;stroke:#000000;stroke-width:0.3;" />
    <text x="3" y="2" style="font-size:6px;font-family:sans-serif">445</text>
  </g>

  <g transform="translate(200,469)">
    <rect width="16" height="8" rx="5" ry="5" x="0" y="-4"
       style="color:#000000;fill:#ffffff;stroke:#000000;stroke-width:0.3;" />
    <text x="3" y="2" style="font-size:6px;font-family:sans-serif">469</text>
  </g>

  <g transform="translate(200,522)">
    <rect width="16" height="8" rx="5" ry="5" x="0" y="-4"
       style="color:#000000;fill:#ffffff;stroke:#000000;stroke-width:0.3;" />
    <text x="3" y="2" style="font-size:6px;font-family:sans-serif">522</text>
  </g>

  <g transform="translate(200,572)">
    <rect width="16" height="8" rx="5" ry="5" x="0" y="-4"
       style="color:#000000;fill:#ffffff;stroke:#000000;stroke-width:0.3;" />
    <text x="3" y="2" style="font-size:6px;font-family:sans-serif">572</text>
  </g>

  <g transform="translate(200,648)">
    <rect width="16" height="8" rx="5" ry="5" x="0" y="-4"
       style="color:#000000;fill:#ffffff;stroke:#000000;stroke-width:0.3;" />
    <text x="3" y="2" style="font-size:6px;font-family:sans-serif">648</text>
  </g>

  <g transform="translate(200,702)">
    <rect width="16" height="8" rx="5" ry="5" x="0" y="-4"
       style="color:#000000;fill:#ffffff;stroke:#000000;stroke-width:0.3;" />
    <text x="3" y="2" style="font-size:6px;font-family:sans-serif">702</text>
  </g>

  <g transform="translate(200,706)">
    <rect width="16" height="8" rx="5" ry="5" x="0" y="-4"
       style="color:#000000;fill:#ffffff;stroke:#000000;stroke-width:0.3;" />
    <text x="3" y="2" style="font-size:6px;font-family:sans-serif">706</text>
  </g>

  <g transform="translate(200,776)">
    <rect width="16" height="8" rx="5" ry="5" x="0" y="-4"
       style="color:#000000;fill:#ffffff;stroke:#000000;stroke-width:0.3;" />
    <text x="3" y="2" style="font-size:6px;font-family:sans-serif">776</text>
  </g>

  </g>
</svg>
