<?xml version="1.0" encoding="UTF-8" standalone="no"?>
<svg xmlns:dc="http://purl.org/dc/elements/1.1/" xmlns:cc="http://creativecommons.org/ns#" xmlns:rdf="http://www.w3.org/1999/02/22-rdf-syntax-ns#" xmlns:svg="http://www.w3.org/2000/svg" xmlns="http://www.w3.org/2000/svg" version="1.1" width="300" height="647" id="svg2">
  <g id="layer1">

    <path
       d="m 0,61 100,0"
       id="annotators:brennan-61"
       style="fill:none;stroke:#000000;stroke-width:1;stroke-linecap:square;stroke-linejoin:miter;stroke-miterlimit:4;stroke-opacity:1;stroke-dasharray:3, 3;stroke-dashoffset:0" />

    <path
       d="m 0,95 100,0"
       id="annotators:brennan-95"
       style="fill:none;stroke:#000000;stroke-width:1;stroke-linecap:square;stroke-linejoin:miter;stroke-miterlimit:4;stroke-opacity:1;stroke-dasharray:3, 3;stroke-dashoffset:0" />

    <path
       d="m 0,119 100,0"
       id="annotators:brennan-119"
       style="fill:none;stroke:#000000;stroke-width:1;stroke-linecap:square;stroke-linejoin:miter;stroke-miterlimit:4;stroke-opacity:1;stroke-dasharray:3, 3;stroke-dashoffset:0" />

    <path
       d="m 0,132 100,0"
       id="annotators:brennan-132"
       style="fill:none;stroke:#000000;stroke-width:1;stroke-linecap:square;stroke-linejoin:miter;stroke-miterlimit:4;stroke-opacity:1;stroke-dasharray:3, 3;stroke-dashoffset:0" />

    <path
       d="m 0,142 100,0"
       id="annotators:brennan-142"
       style="fill:none;stroke:#000000;stroke-width:1;stroke-linecap:square;stroke-linejoin:miter;stroke-miterlimit:4;stroke-opacity:1;stroke-dasharray:3, 3;stroke-dashoffset:0" />

    <path
       d="m 0,234 100,0"
       id="annotators:brennan-234"
       style="fill:none;stroke:#000000;stroke-width:1;stroke-linecap:square;stroke-linejoin:miter;stroke-miterlimit:4;stroke-opacity:1;stroke-dasharray:3, 3;stroke-dashoffset:0" />

    <path
       d="m 0,278 100,0"
       id="annotators:brennan-278"
       style="fill:none;stroke:#000000;stroke-width:1;stroke-linecap:square;stroke-linejoin:miter;stroke-miterlimit:4;stroke-opacity:1;stroke-dasharray:3, 3;stroke-dashoffset:0" />

    <path
       d="m 0,366 100,0"
       id="annotators:brennan-366"
       style="fill:none;stroke:#000000;stroke-width:1;stroke-linecap:square;stroke-linejoin:miter;stroke-miterlimit:4;stroke-opacity:1;stroke-dasharray:3, 3;stroke-dashoffset:0" />

    <path
       d="m 0,479 100,0"
       id="annotators:brennan-479"
       style="fill:none;stroke:#000000;stroke-width:1;stroke-linecap:square;stroke-linejoin:miter;stroke-miterlimit:4;stroke-opacity:1;stroke-dasharray:3, 3;stroke-dashoffset:0" />

    <path
       d="m 0,562 100,0"
       id="annotators:brennan-562"
       style="fill:none;stroke:#000000;stroke-width:1;stroke-linecap:square;stroke-linejoin:miter;stroke-miterlimit:4;stroke-opacity:1;stroke-dasharray:3, 3;stroke-dashoffset:0" />

    <path
       d="m 100,61 100,0"
       id="annotators:docsouth-61"
       style="fill:none;stroke:#000000;stroke-width:1;stroke-linecap:square;stroke-linejoin:miter;stroke-miterlimit:4;stroke-opacity:1;stroke-dasharray:3, 3;stroke-dashoffset:0" />

    <path
       d="m 100,125 100,0"
       id="annotators:docsouth-125"
       style="fill:none;stroke:#000000;stroke-width:1;stroke-linecap:square;stroke-linejoin:miter;stroke-miterlimit:4;stroke-opacity:1;stroke-dasharray:3, 3;stroke-dashoffset:0" />

    <path
       d="m 100,139 100,0"
       id="annotators:docsouth-139"
       style="fill:none;stroke:#000000;stroke-width:1;stroke-linecap:square;stroke-linejoin:miter;stroke-miterlimit:4;stroke-opacity:1;stroke-dasharray:3, 3;stroke-dashoffset:0" />

    <path
       d="m 100,234 100,0"
       id="annotators:docsouth-234"
       style="fill:none;stroke:#000000;stroke-width:1;stroke-linecap:square;stroke-linejoin:miter;stroke-miterlimit:4;stroke-opacity:1;stroke-dasharray:3, 3;stroke-dashoffset:0" />

    <path
       d="m 100,397 100,0"
       id="annotators:docsouth-397"
       style="fill:none;stroke:#000000;stroke-width:1;stroke-linecap:square;stroke-linejoin:miter;stroke-miterlimit:4;stroke-opacity:1;stroke-dasharray:3, 3;stroke-dashoffset:0" />

    <path
       d="m 100,467 100,0"
       id="annotators:docsouth-467"
       style="fill:none;stroke:#000000;stroke-width:1;stroke-linecap:square;stroke-linejoin:miter;stroke-miterlimit:4;stroke-opacity:1;stroke-dasharray:3, 3;stroke-dashoffset:0" />

    <path
       d="m 100,522 100,0"
       id="annotators:docsouth-522"
       style="fill:none;stroke:#000000;stroke-width:1;stroke-linecap:square;stroke-linejoin:miter;stroke-miterlimit:4;stroke-opacity:1;stroke-dasharray:3, 3;stroke-dashoffset:0" />

    <path
       d="m 100,562 100,0"
       id="annotators:docsouth-562"
       style="fill:none;stroke:#000000;stroke-width:1;stroke-linecap:square;stroke-linejoin:miter;stroke-miterlimit:4;stroke-opacity:1;stroke-dasharray:3, 3;stroke-dashoffset:0" />

    <path
       d="m 200,27 100,0"
       id="annotators:mannheim-27"
       style="fill:none;stroke:#000000;stroke-width:1;stroke-linecap:square;stroke-linejoin:miter;stroke-miterlimit:4;stroke-opacity:1;stroke-dasharray:3, 3;stroke-dashoffset:0" />

    <path
       d="m 200,85 100,0"
       id="annotators:mannheim-85"
       style="fill:none;stroke:#000000;stroke-width:1;stroke-linecap:square;stroke-linejoin:miter;stroke-miterlimit:4;stroke-opacity:1;stroke-dasharray:3, 3;stroke-dashoffset:0" />

    <path
       d="m 200,95 100,0"
       id="annotators:mannheim-95"
       style="fill:none;stroke:#000000;stroke-width:1;stroke-linecap:square;stroke-linejoin:miter;stroke-miterlimit:4;stroke-opacity:1;stroke-dasharray:3, 3;stroke-dashoffset:0" />

    <path
       d="m 200,132 100,0"
       id="annotators:mannheim-132"
       style="fill:none;stroke:#000000;stroke-width:1;stroke-linecap:square;stroke-linejoin:miter;stroke-miterlimit:4;stroke-opacity:1;stroke-dasharray:3, 3;stroke-dashoffset:0" />

    <path
       d="m 200,278 100,0"
       id="annotators:mannheim-278"
       style="fill:none;stroke:#000000;stroke-width:1;stroke-linecap:square;stroke-linejoin:miter;stroke-miterlimit:4;stroke-opacity:1;stroke-dasharray:3, 3;stroke-dashoffset:0" />

    <path
       d="m 200,328 100,0"
       id="annotators:mannheim-328"
       style="fill:none;stroke:#000000;stroke-width:1;stroke-linecap:square;stroke-linejoin:miter;stroke-miterlimit:4;stroke-opacity:1;stroke-dasharray:3, 3;stroke-dashoffset:0" />

    <path
       d="m 200,383 100,0"
       id="annotators:mannheim-383"
       style="fill:none;stroke:#000000;stroke-width:1;stroke-linecap:square;stroke-linejoin:miter;stroke-miterlimit:4;stroke-opacity:1;stroke-dasharray:3, 3;stroke-dashoffset:0" />

    <path
       d="m 200,479 100,0"
       id="annotators:mannheim-479"
       style="fill:none;stroke:#000000;stroke-width:1;stroke-linecap:square;stroke-linejoin:miter;stroke-miterlimit:4;stroke-opacity:1;stroke-dasharray:3, 3;stroke-dashoffset:0" />

    <path
       d="m 200,562 100,0"
       id="annotators:mannheim-562"
       style="fill:none;stroke:#000000;stroke-width:1;stroke-linecap:square;stroke-linejoin:miter;stroke-miterlimit:4;stroke-opacity:1;stroke-dasharray:3, 3;stroke-dashoffset:0" />

    <path
       d="m 200,603 100,0"
       id="annotators:mannheim-603"
       style="fill:none;stroke:#000000;stroke-width:1;stroke-linecap:square;stroke-linejoin:miter;stroke-miterlimit:4;stroke-opacity:1;stroke-dasharray:3, 3;stroke-dashoffset:0" />

    <path
       d="m 0,61 300,0"
       id="gold-61"
       style="fill:none;stroke:#ff0000;stroke-width:1;stroke-linecap:square;stroke-linejoin:miter;stroke-miterlimit:4;stroke-opacity:0.75;stroke-dasharray:none;stroke-dashoffset:0" />

    <path
       d="m 0,95 300,0"
       id="gold-95"
       style="fill:none;stroke:#ff0000;stroke-width:1;stroke-linecap:square;stroke-linejoin:miter;stroke-miterlimit:4;stroke-opacity:0.75;stroke-dasharray:none;stroke-dashoffset:0" />

    <path
       d="m 0,132 300,0"
       id="gold-132"
       style="fill:none;stroke:#ff0000;stroke-width:1;stroke-linecap:square;stroke-linejoin:miter;stroke-miterlimit:4;stroke-opacity:0.75;stroke-dasharray:none;stroke-dashoffset:0" />

    <path
       d="m 0,234 300,0"
       id="gold-234"
       style="fill:none;stroke:#ff0000;stroke-width:1;stroke-linecap:square;stroke-linejoin:miter;stroke-miterlimit:4;stroke-opacity:0.75;stroke-dasharray:none;stroke-dashoffset:0" />

    <path
       d="m 0,278 300,0"
       id="gold-278"
       style="fill:none;stroke:#ff0000;stroke-width:1;stroke-linecap:square;stroke-linejoin:miter;stroke-miterlimit:4;stroke-opacity:0.75;stroke-dasharray:none;stroke-dashoffset:0" />

    <path
       d="m 0,479 300,0"
       id="gold-479"
       style="fill:none;stroke:#ff0000;stroke-width:1;stroke-linecap:square;stroke-linejoin:miter;stroke-miterlimit:4;stroke-opacity:0.75;stroke-dasharray:none;stroke-dashoffset:0" />

    <path
       d="m 0,562 300,0"
       id="gold-562"
       style="fill:none;stroke:#ff0000;stroke-width:1;stroke-linecap:square;stroke-linejoin:miter;stroke-miterlimit:4;stroke-opacity:0.75;stroke-dasharray:none;stroke-dashoffset:0" />

  <g transform="translate(0,61)">
    <rect width="12" height="8" rx="5" ry="5" x="0" y="-4"
       style="color:#000000;fill:#ffffff;stroke:#000000;stroke-width:0.3;" />
    <text x="3" y="2" style="font-size:6px;font-family:sans-serif">61</text>
  </g>

  <g transform="translate(0,95)">
    <rect width="12" height="8" rx="5" ry="5" x="0" y="-4"
       style="color:#000000;fill:#ffffff;stroke:#000000;stroke-width:0.3;" />
    <text x="3" y="2" style="font-size:6px;font-family:sans-serif">95</text>
  </g>

  <g transform="translate(0,119)">
    <rect width="16" height="8" rx="5" ry="5" x="0" y="-4"
       style="color:#000000;fill:#ffffff;stroke:#000000;stroke-width:0.3;" />
    <text x="3" y="2" style="font-size:6px;font-family:sans-serif">119</text>
  </g>

  <g transform="translate(0,132)">
    <rect width="16" height="8" rx="5" ry="5" x="0" y="-4"
       style="color:#000000;fill:#ffffff;stroke:#000000;stroke-width:0.3;" />
    <text x="3" y="2" style="font-size:6px;font-family:sans-serif">132</text>
  </g>

  <g transform="translate(0,142)">
    <rect width="16" height="8" rx="5" ry="5" x="0" y="-4"
       style="color:#000000;fill:#ffffff;stroke:#000000;stroke-width:0.3;" />
    <text x="3" y="2" style="font-size:6px;font-family:sans-serif">142</text>
  </g>

  <g transform="translate(0,234)">
    <rect width="16" height="8" rx="5" ry="5" x="0" y="-4"
       style="color:#000000;fill:#ffffff;stroke:#000000;stroke-width:0.3;" />
    <text x="3" y="2" style="font-size:6px;font-family:sans-serif">234</text>
  </g>

  <g transform="translate(0,278)">
    <rect width="16" height="8" rx="5" ry="5" x="0" y="-4"
       style="color:#000000;fill:#ffffff;stroke:#000000;stroke-width:0.3;" />
    <text x="3" y="2" style="font-size:6px;font-family:sans-serif">278</text>
  </g>

  <g transform="translate(0,366)">
    <rect width="16" height="8" rx="5" ry="5" x="0" y="-4"
       style="color:#000000;fill:#ffffff;stroke:#000000;stroke-width:0.3;" />
    <text x="3" y="2" style="font-size:6px;font-family:sans-serif">366</text>
  </g>

  <g transform="translate(0,479)">
    <rect width="16" height="8" rx="5" ry="5" x="0" y="-4"
       style="color:#000000;fill:#ffffff;stroke:#000000;stroke-width:0.3;" />
    <text x="3" y="2" style="font-size:6px;font-family:sans-serif">479</text>
  </g>

  <g transform="translate(0,562)">
    <rect width="16" height="8" rx="5" ry="5" x="0" y="-4"
       style="color:#000000;fill:#ffffff;stroke:#000000;stroke-width:0.3;" />
    <text x="3" y="2" style="font-size:6px;font-family:sans-serif">562</text>
  </g>

  <g transform="translate(100,61)">
    <rect width="12" height="8" rx="5" ry="5" x="0" y="-4"
       style="color:#000000;fill:#ffffff;stroke:#000000;stroke-width:0.3;" />
    <text x="3" y="2" style="font-size:6px;font-family:sans-serif">61</text>
  </g>

  <g transform="translate(100,125)">
    <rect width="16" height="8" rx="5" ry="5" x="0" y="-4"
       style="color:#000000;fill:#ffffff;stroke:#000000;stroke-width:0.3;" />
    <text x="3" y="2" style="font-size:6px;font-family:sans-serif">125</text>
  </g>

  <g transform="translate(100,139)">
    <rect width="16" height="8" rx="5" ry="5" x="0" y="-4"
       style="color:#000000;fill:#ffffff;stroke:#000000;stroke-width:0.3;" />
    <text x="3" y="2" style="font-size:6px;font-family:sans-serif">139</text>
  </g>

  <g transform="translate(100,234)">
    <rect width="16" height="8" rx="5" ry="5" x="0" y="-4"
       style="color:#000000;fill:#ffffff;stroke:#000000;stroke-width:0.3;" />
    <text x="3" y="2" style="font-size:6px;font-family:sans-serif">234</text>
  </g>

  <g transform="translate(100,397)">
    <rect width="16" height="8" rx="5" ry="5" x="0" y="-4"
       style="color:#000000;fill:#ffffff;stroke:#000000;stroke-width:0.3;" />
    <text x="3" y="2" style="font-size:6px;font-family:sans-serif">397</text>
  </g>

  <g transform="translate(100,467)">
    <rect width="16" height="8" rx="5" ry="5" x="0" y="-4"
       style="color:#000000;fill:#ffffff;stroke:#000000;stroke-width:0.3;" />
    <text x="3" y="2" style="font-size:6px;font-family:sans-serif">467</text>
  </g>

  <g transform="translate(100,522)">
    <rect width="16" height="8" rx="5" ry="5" x="0" y="-4"
       style="color:#000000;fill:#ffffff;stroke:#000000;stroke-width:0.3;" />
    <text x="3" y="2" style="font-size:6px;font-family:sans-serif">522</text>
  </g>

  <g transform="translate(100,562)">
    <rect width="16" height="8" rx="5" ry="5" x="0" y="-4"
       style="color:#000000;fill:#ffffff;stroke:#000000;stroke-width:0.3;" />
    <text x="3" y="2" style="font-size:6px;font-family:sans-serif">562</text>
  </g>

  <g transform="translate(200,27)">
    <rect width="12" height="8" rx="5" ry="5" x="0" y="-4"
       style="color:#000000;fill:#ffffff;stroke:#000000;stroke-width:0.3;" />
    <text x="3" y="2" style="font-size:6px;font-family:sans-serif">27</text>
  </g>

  <g transform="translate(200,85)">
    <rect width="12" height="8" rx="5" ry="5" x="0" y="-4"
       style="color:#000000;fill:#ffffff;stroke:#000000;stroke-width:0.3;" />
    <text x="3" y="2" style="font-size:6px;font-family:sans-serif">85</text>
  </g>

  <g transform="translate(200,95)">
    <rect width="12" height="8" rx="5" ry="5" x="0" y="-4"
       style="color:#000000;fill:#ffffff;stroke:#000000;stroke-width:0.3;" />
    <text x="3" y="2" style="font-size:6px;font-family:sans-serif">95</text>
  </g>

  <g transform="translate(200,132)">
    <rect width="16" height="8" rx="5" ry="5" x="0" y="-4"
       style="color:#000000;fill:#ffffff;stroke:#000000;stroke-width:0.3;" />
    <text x="3" y="2" style="font-size:6px;font-family:sans-serif">132</text>
  </g>

  <g transform="translate(200,278)">
    <rect width="16" height="8" rx="5" ry="5" x="0" y="-4"
       style="color:#000000;fill:#ffffff;stroke:#000000;stroke-width:0.3;" />
    <text x="3" y="2" style="font-size:6px;font-family:sans-serif">278</text>
  </g>

  <g transform="translate(200,328)">
    <rect width="16" height="8" rx="5" ry="5" x="0" y="-4"
       style="color:#000000;fill:#ffffff;stroke:#000000;stroke-width:0.3;" />
    <text x="3" y="2" style="font-size:6px;font-family:sans-serif">328</text>
  </g>

  <g transform="translate(200,383)">
    <rect width="16" height="8" rx="5" ry="5" x="0" y="-4"
       style="color:#000000;fill:#ffffff;stroke:#000000;stroke-width:0.3;" />
    <text x="3" y="2" style="font-size:6px;font-family:sans-serif">383</text>
  </g>

  <g transform="translate(200,479)">
    <rect width="16" height="8" rx="5" ry="5" x="0" y="-4"
       style="color:#000000;fill:#ffffff;stroke:#000000;stroke-width:0.3;" />
    <text x="3" y="2" style="font-size:6px;font-family:sans-serif">479</text>
  </g>

  <g transform="translate(200,562)">
    <rect width="16" height="8" rx="5" ry="5" x="0" y="-4"
       style="color:#000000;fill:#ffffff;stroke:#000000;stroke-width:0.3;" />
    <text x="3" y="2" style="font-size:6px;font-family:sans-serif">562</text>
  </g>

  <g transform="translate(200,603)">
    <rect width="16" height="8" rx="5" ry="5" x="0" y="-4"
       style="color:#000000;fill:#ffffff;stroke:#000000;stroke-width:0.3;" />
    <text x="3" y="2" style="font-size:6px;font-family:sans-serif">603</text>
  </g>

  </g>
</svg>
